<svg xmlns="http://www.w3.org/2000/svg" xmlns:xlink="http://www.w3.org/1999/xlink" id="artwork" x="0px" y="0px" viewBox="0 0 6338.2 5166.7" style="enable-background:new 0 0 6338.2 5166.7;" xml:space="preserve"><style type="text/css">	.st0{fill:#D80B8C;}	.st1{fill:#FFFFFF;}	.st2{fill:url(#SVGID_1_);}	.st3{fill:#44E677;}	.st4{fill:url(#SVGID_00000108293944351772459790000007807809359760422565_);}</style><path class="st0" d="M1282.1,4559.7c3.9-70.8,7.5-141.6,11.3-212.4c6.6-120.4,14-240.9,19.7-361.3c5.2-111.6,9.2-223.2,12.6-334.9  c4.9-161.7,10.7-323.3,12.4-485c1.5-152.8-3.8-305.5-6-458.3c-2.4-167.3-1.6-334.7,6.8-501.9c3.3-65.8,5.7-131.7,10.3-197.4  c6.2-87.3,9.7-174.7,8.8-262.1c-0.8-75.6-4.2-151.2-6.6-226.8c-0.2-7.1,0-12.8,7.4-17.5c59-37.6,115.1-79.7,176.2-114.1  c95.9-54,192.4-107,282.4-170.7c0.6,1.7,1.4,3.5,1.4,5.2c2.3,170.8-1.8,341.6,1.4,512.5c4.7,252.1,8.6,1013,3.3,1141.5  c-6.7,161-4.7,766.6-8.7,908.2c-3.6,126.1-5.9,383.8-2.7,548.7c178-59.6,353.1-103.5,518.4-135.8c1.2-82.2,2.4-172.5,3.5-264.7  c2.9-240.4-1.5-480.7-3.2-721.1c-0.6-94.5-0.5-647.2,11-869.2c5.4-104,4.1-682.4,5-703.2c6.1-134.6-0.6-164.7-50.8-196.5  c-34.3-21.7-39.7-25.2-62.5-37.9c-22.9-12.8-12.3-21.2-11.8-61.7c0-2.7,5.3-223.5,7.3-331.1c2.2-120.8,4-241.7,5.7-362.5  c0.6-40.3,0.1-80.6,0.1-120.8c0-7.4-0.7-13.6,7.8-19.2c94.9-62.7,189.3-126.1,283.9-189.2c56.3-37.5,112.7-74.7,169.7-112.5  c4.1,23.4,1.1,45.5,1,67.6c-0.4,138.9,1.6,277.9-2.2,416.8c-3.8,136.8,5,683.9,9.1,820.7c3.1,104.7-23.3,1430.7-26.9,1588.9  c-2.1,91.6,3.2,183.2,6.3,274.8c3.8,110.3,3.2,220.8,4.8,331.2c0.7,44.6,1.2,327.4,5.3,433.8c106.2-12.1,204.2-19.6,291.6-24.1  c-1.5-112.2,0-310.8,0.3-334.1c0.8-73.6,3.3-147.2,3.4-220.8c0.4-298.8,0.8-597.5-0.3-896.2c-0.4-98.5-8.1-196.9-7.3-295.5  c0.3-32.6,5.1-65.1,0.2-97.8c-2.1-14.4,1.9-22.6,16.9-31.1c131.2-74.7,265.9-142.8,399.4-213.1c12.8-6.8,25.4-14.9,40.9-17.5  c-2.6,123-0.2,244.6,0.5,366.1c1.2,204.9-3,409.8-4.6,614.7c-1.9,231.3-0.7,462.7-0.4,694c0.1,93.2,1.1,186.3,2.1,279.5  c0.5,42.4,1.5,84.7,3.1,127c0.2,6.4,0.6,12.8,1.1,19.2c275,6.6,613,33.1,960,105.9c0.2-3.5,0.3-7.1,0.5-10.6  c4.7-86.6,6.8-173.4,9.4-260.1c3.3-108.2,14.1-216.1,13.1-324.5c-1-118.8,12.2-1428.6,8.6-1545.9c-2.6-81.9,3.3-163.8,7.2-245.6  c1.7-35.9-9.2-59.2-39.4-78.8c-171.1-111.1-336.7-230.4-505.3-345.1c-58.5-39.8-119.2-76.1-180.7-111.3  c-28.1-16.1-52.1-17.6-80.2,2.5c-64.9,46.4-131.6,90.4-197.9,134.7c-44.3,29.5-86,62.4-131,99.1c0-17.5-0.2-30.4,0-43.3  c1.3-89.6,3.9-179.2,3.6-268.8c-0.6-142.4,6-582.1,6.4-659.2c0.1-25.8-20.3-46.3-45.7-61.1c-40.1-23.3-76.9-52-117.5-74.8  c-92.4-51.8-185-103.2-276.9-155.9c-42.6-24.4-83.7-51.6-125.7-77.2c-24.9-15.1-50.1-18.9-75.8-0.8c-7.9,5.5-17.1,9.1-25.4,14.1  C2505.7,292.4,2376,397.7,2233,483.1c-11.7,7-18.5,17.1-18.6,32.4c-0.2,25.6-3.5,51.2-4.2,76.9c-2.7,100-1,200-4,300  c-4.6,154.7-5.4,309.6-12.9,464.3c-0.7,15.2-4,17.7-17.8,10.5c-104.2-55-208.8-109.1-314.7-160.9c-25.1-12.3-46.2-12.3-69.6,3.2  c-101.8,67.2-206.8,129.1-313.9,187.6c-45,24.6-89.1,50.9-131.4,80c-8.4,5.8-21.2,12.6-18.7,23.1c5.9,25.9-1.7,50.9-1,76.4  c2.9,106.2,6.8,212.4,0.4,318.6c-5.3,88.7-8.2,177.5-14.2,266c-10,147-11.7,294.2-11.5,441.3c0.1,116.6,4.7,233.3,7.1,349.9  c3.1,151.3,4.6,302.6-1.4,454.1c-5.1,128.3-8,256.7-12.9,385c-3.9,101.3-5.4,202.6-8.9,303.9c-3.4,98.4-8.6,196.8-11.9,295.3  c-2,58.9-3.6,117.9-5.1,176.8C1272.4,4564.9,1277.2,4562.3,1282.1,4559.7z M3305.6,2031.4c5.4-87.3,4.2-174.8,5.8-262.2  c1.1-63.2-3.8-126.1-5.7-189.2c-0.3-10.4,1.1-17.9,10.9-24.4c114-75.6,224.3-156.2,334.4-237.4c4.2-3.1,7.7-8.1,13-7.9  c7.9,274.3,10.7,547.5,7.2,823.9c-44-30.6-86.5-60.1-128.9-89.7c-28.4-19.7-55.7-41-89.1-52.7c-10-3.5-18.3-4-27.7,0.6  c-34.1,16.7-68.7,32.5-102.6,49.8C3308.3,2049.9,3304.7,2045.9,3305.6,2031.4z M1819.2,1216.1c0.2-0.1,0.6,0.2,0.9,0.4  c-0.7,0-1.3,0.1-1.9,0.1c-0.3,0.1-0.5,0.3-0.8,0.4c0,0-0.3-0.4-0.3-0.4c0.4,0,0.7,0,1.1,0  C1818.5,1216.4,1818.9,1216.2,1819.2,1216.1z"></path><g id="logos">	<g>		<path class="st1" d="M3195.7,782.7c2.2,12.1-2.7,22.3-10,32.4c-53.5,74-114.5,97.3-200.9,61.7c-64.8-26.7-105-78-137.1-137.4    c-24.2-44.8-48.8-89.4-60.1-139.8c-1.5-6.9-5.3-15.6,2.2-18.9c9.4-4.2,12.8,6,16,12.5c24.5,49.3,53.6,95.5,98,129    c41.3,31.2,78.1,71.3,134.6,76.5c48.5,4.5,95.4,2.6,136.1-28.8c4.8-3.7,9.1-10.6,16-6.4C3197.2,767.5,3198.6,774.6,3195.7,782.7z"></path>		<path class="st1" d="M3208.2,763.1c0.2-37.6-0.6-38.6-36.3-40.5c-8.6-0.5-17.9-0.8-18.2-12.4c-0.3-13.9,2.5-29,17.2-32.7    c17.2-4.4,35.8-6.1,53.5-4.7c12.6,1,24.8,7.7,26.5,24.9c4.6,48-8.8,91.8-28.4,134.5c-3,6.6-8.3,4.7-12.3,3.8    c-9.7-2.2-10.2-10.6-9.1-18.3C3203.8,799.1,3209.1,780.9,3208.2,763.1z"></path>	</g>	<g>		<path class="st1" d="M2250.6,1790.3c0.2,26.4-4.2,51.5-16.1,75.3c-35.4,70.7-117.6,75.3-181.4,35.2    c-77.8-49-120.7-121.7-126.8-212.6c-4.7-70.4,27.8-132.1,97.2-140.3c48.8-5.8,92.9,12.3,130.5,45.3    C2213.9,1645.6,2246.9,1710.8,2250.6,1790.3z M2203.8,1782c-7.2-77.4-38.1-130.9-101.5-161.7c-55.6-26.9-108.8,4.6-115.3,66.3    c-1.8,17.6-0.2,35,4.4,52.1c11.5,42.6,34.6,77.6,70.7,103.2c28.6,20.4,59.8,28.9,94.5,17.2c1.9-0.6,4.1-0.3,6.2-0.1    c8.5,0.6,41.9-26,38.5-31.9C2190.8,1808.5,2206.4,1791.5,2203.8,1782z"></path>		<path class="st1" d="M2152.2,1754.1c0.7,40-29.7,57.8-65,40.2c-25.3-12.7-45.8-50.6-42.8-79.3c3.9-37.5,36.2-51,69.4-28.1    C2137.6,1703.3,2149.2,1727.6,2152.2,1754.1z"></path>	</g></g><radialGradient id="SVGID_1_" cx="3823.53" cy="395.994" r="664.0735" gradientTransform="matrix(1 5.748302e-03 1.240000e-02 -2.1583 5.5277 4039.124)" gradientUnits="userSpaceOnUse">	<stop offset="7.812616e-04" style="stop-color:#370053"></stop>	<stop offset="0.8962" style="stop-color:#370053;stop-opacity:0"></stop>	<stop offset="1" style="stop-color:#370053;stop-opacity:0"></stop></radialGradient><path class="st2" d="M3684.6,1672.6l-13.6,461.7l488.5,281l-14.3,1961l251.6-45.5c0,0,41.9-1063.8,34.9-1356.6s0-978.2,0-978.2  L3684.6,1672.6z"></path><g>	<path class="st3" d="M864.5,4826.9c1.4,0.6,3,1.2,4.6,1.6c6.3-4.9,12.7-9.7,19-14.5c-3.5-0.2-7.2-0.6-11.1-1.2   c29.3-15.7,43.3-43,70.3-56.1c14.2-6.9,22.3-22.6,27.4-38.1c5.9-18.1-2.7-35.6-22.5-46.4c-16.1-8.8-30.7-9-40.4,9.5   c-4.6,8.8-10.3,5-17.3,3.8c-28.1-5-46.7,9-45,36.2c1.2,18.8,7.4,36.8-13.1,49.2c-2,1.2-2.8,6.6-2.2,9.7   C837.8,4800.2,844.3,4818.1,864.5,4826.9z M872.5,4700.3c11-5.3,20.2,0.2,28.1,6.9c5,4.2,7.4,12.9,16.1,10.3   c10.7-3.2,5.5-12.3,6.3-19.3c0.6-5.4,1.7-11.5,8.2-13.2c5.2-1.4,9.1,1.8,12.9,5.1c14.6,12.7,14,33.7-6.6,49.9   c-15.7,12.4-31.9,27.6-54.6,27.8c0.3-8.4-0.7-15.9-9-21c-7-4.2-10.2-11.5-10.9-19.3C862.2,4717.4,860.5,4706.2,872.5,4700.3z    M865,4771.7c5.8-1.4,11.8-2.3,17.7-3.3c2.5,11.8-6.4,22.3-17.3,19.7c-5.5-1.3-11-5-11.2-10.9   C853.6,4769.7,860.9,4772.7,865,4771.7z"></path>	<path class="st3" d="M1373.8,4148.6c10.4-0.8,11.7,2.7,11.6,11.2c-0.3,18.3,3,36.1,9.7,53c12.1,30.5,36.8,46.9,67.7,45.6   c23.1-1,40.3-13.7,56.6-28.3c3-2.7,5.8-7.2,10.4-5.2c4.2,1.8,4.3,6.7,4.7,10.9c4.2,40,8.8,79.9,12.5,119.9   c2.4,26,4.1,52.1,6.1,78.2c7.8-3.3,15.5-6.5,23.3-9.7c-4.6-68-12.8-135.5-28.3-202.1c-3.2-13.6-2.7-27,10.7-37.4   c0.5,4.4,0.5,8,1.3,11.3c18.1,70.6,43,139,67.2,207.6c5.4-2.1,10.9-4.3,16.3-6.4c-4.6-13.6-9.4-27.2-14.5-40.7   c-16.5-43.6-31.8-87.5-43.6-133.6c65.9,15.6,124-7.4,141.2-61c9.7-30.3,33.3-28.6,52.8-39.8c2.2,6.4-0.5,8.8-2.7,11.3   c-12.7,13.9-25.5,27.6-38.1,41.5c-5.7,6.3-11.4,13.1-4.7,22.1c7.2,9.6,15.8,6.3,24.2,2c6.8-3.4,13.6-6.9,20.3-10.3   c1.6-1.4,2.9-5.1,5.3-2.8c2,1.9,0.3,4.5-2.4,5.6c-12.9,24.8-30.8,46.2-46.7,69c-7.2,10.3-14.9,21.7-5.1,31.7   c10.5,10.8,21.4,1.5,30.9-6.2c21.3-17.4,44.8-31.4,70.4-46.5c0.7,31-0.9,61-2.4,91.2c5.8-1.9,11.5-3.8,17.3-5.6   c2-24.6,0-50.3,8.4-79c2.6,25.1,5.9,49.9,9.6,73.2c4.5-1.4,8.9-2.8,13.4-4.2c-3.3-19.2-6.6-38.5-9.6-57.8c-1.2-8.2-4-18.4,9.8-21.2   c41.8-8.4,78.8-29.8,118.1-44.9c13.4-5.2,14.8-3.3,14.1,9.9c-1.2,25.3-1.5,50.6-4.1,75.9c6.2-1.7,12.4-3.4,18.6-5.1   c1.6-27.9-1.5-55.8-4.6-83.6c-1.4-12.5,2.4-19.2,15.8-22.4c0,7,0.1,12.6,0,18.1c-0.4,28,2.9,55.5,8.1,82.8c5.6-1.5,11.1-3,16.7-4.4   c-3-19.3-5.9-38.6-11.9-57c-8.3-25.6-1.4-36.6,23.4-43.2c10.2-2.7,13.3-4,13.9,7.5c1.1,23.6,3.3,47.2,4.2,70.8   c0.2,4.7,0.3,9.5,0.3,14.2c5-1.3,10.1-2.6,15.1-3.8c-0.5-50.5-4.1-100.8-11.2-151c-1.4-9.7-10.3-25.3,3.9-28.4   c7.2-1.6,6.6,17.2,8.1,26.9c7.2,48.9,17.1,97.3,29.6,145c4.8-1.2,9.6-2.3,14.4-3.5c-9.6-55-21.9-109.4-32.4-164.3   c-2.6-13.6-4.1-20,14.8-16.9c47.4,7.8,95-31.2,95.4-79.2c0.2-25.8-5.4-51.2,20.7-68.4c1.5-1,1.8-3.7,2.7-5.6   c25.7-55.5,8.7-137.4-39.5-175.2c-16.3-12.8-14.5-20.2-5.4-35.6c25.6-43.1,24.8-74.9-1.4-105.8c-20.2-23.7-43.9-42.8-76.3-47   c-9.8-1.2-14.9-4.6-17.5-16.1c-8.1-36.3-27.6-67.1-55.1-91.6c-24.3-21.6-49.7-43.7-87.1-32.6c-3.1,0.9-7.9-2-11.4-4.1   c-15.8-9.8-33.7-13.2-51.5-15.6c-42.2-5.7-111.6,25-112.6,91.3c-0.2,15.8,11.3,31.7,7.3,44.2c-4.2,13.3-26.8,14.5-36.1,28.1   c-2,2.9-4.8,5.2-6.4,8.2c-19.6,36.1-33,74.5-26.3,115.5c5.9,36.1,19.4,70.3,59.5,83.4c9.4,3.1,7.8,8,5.6,15.3   c-18.4,60,7.3,108,67.2,125.8c13.6,4,27.6,6.8,46.3,11.3c-27.5,23.3-42.7,50.4-46.9,84.5c-8.6-4.8-12.6-11.3-16.8-17.6   c-17-25.3-34.1-50.7-51.2-75.9c-4.3-6.3-8.7-14.2-17.8-11.3c-9.2,3-4.8,11.8-4.9,18.2c-0.9,47.9-8.1,94.9-21.9,140.7   c-4.4,14.6,0.2,21,15.3,20.1c4.2-0.3,8.6-5.3,13.5,1.3c-12.5,15.1-22.6,32.2-39.9,45.5c-5.2-21.2-10.4-41.2-25.8-55.3   c-9.7-8.8-8.1-14-1.4-23.9c35.8-53.5,36.4-121.2-34.6-159.4c-43.1-23.1-67.2-19.7-91.8,17.6c-17.2-39-50.9-53-88.9-61.2   c-69.4-15-117.4,31.8-102.4,101.1c2.6,11.9,0.3,13.2-10.7,15.2c-52.5,9.6-93.8,49.8-101.9,97.4   C1270.8,4108.6,1308.9,4153.3,1373.8,4148.6z M1834.9,4209.4c0,5.5-3.4,8.4-8.4,10.5c-14.6,6.2-29.1,12.8-43.6,19.3   c-1.6,1.3-3.3,3-4.8,0.2c-0.2-0.4,1.5-1.9,2.3-2.8c12.6-22.2,25.1-44.5,37.7-66.7c2.9-5.1,9.4-9.8,3.4-16.3   c-5.6-6.1-11.7-0.9-17.2,0.9c-7,2.3-13.8,5.5-22.3,6.6c8.5-19.5,20.1-36.5,35.5-50.7c8.2-7.6,11.2,0.6,12.5,6.1   C1837.4,4147.1,1835.1,4178.3,1834.9,4209.4z M1905.4,3875.4c3.4,13.1-2.2,16.8-13.8,14c-18.2-4.4-36-9.8-52.2-19.6   c-39.2-23.9-47.3-74.1-17.2-106.4c9.8-10.5,6.9-19.4-10.2-21.7c-37.2-4.9-53.1-30.4-61.7-61.9c-11.9-43.7-1.8-84.5,24.8-120.1   c11.3-15.1,26.5-29.9,49.7-17.4c4.7,2.5,9.5-0.7,12-5.6c2.5-5,1.3-9.7-2.4-13.4c-25.5-25.7-27.5-56.1-12.6-86.3   c15.5-31.2,44.8-41.4,81.8-40.2c20.6-1.7,42.2,3.6,59.4,21.3c3.2,3.3,6.7,4.7,11.1,4.1c39.8-5.6,64.8,18.6,88.3,44.9   c10.2,11.4,17.4,25.1,23.5,39.2c12.8,29.8,11.4,34.6-14,54c-2.8,2.1-6.4,4-7.8,6.9c-13.2,28.9-33.4,22.6-56.1,13.1   c-17.9-7.5-37.6-10-57.2-6.4c-40.4,7.3-68,42.3-69.7,88.5c-1.5,41.1,1.5,81.1,37.7,109.3c6.5,5.1,2.8,9.6-0.3,14.3   C1900,3813.6,1897.2,3843.8,1905.4,3875.4z M1895.9,3952.8c1.3-1.6,2.9-3,4.3-4.5c22.3-22.7,22.4-22.8,46.4-2.8   c12.7,10.6,27.2,17.2,43.5,18.2c11.5,0.7,14.1,4,10.5,15.2c-6.1,19-5.9,38.4,2.1,57c10,23.2,27.8,36.6,53.1,37.4   c14.5,0.5,24,2.9,22.2,20.6c-0.8,8.1,2.6,16.4,2.9,24.7c1.2,28.4-22.3,43.4-47,29.4c-6.3-3.6-8.6-0.8-12.3,1.9   c-13.1,9.6-27.9,15.5-42.9,20.9c-15.2,5.5-22.5-0.3-22.4-16.5c0.1-9.4,3-17.8,9.6-24.7c5.6-5.9,10-12.1,4.9-20.3   c-5.6-9-14.1-7.5-22.3-4.9c-15.9,5-30.4,1.6-43.2-8.1c-11.1-8.4-17.1-17.4,1.8-24.7c15.4-6,13.4-13.7,0.9-21.5   c-10.8-6.7-28.9-4.1-29.2-24.2C1878.5,4000.2,1878.4,3974.5,1895.9,3952.8z M1787.9,4086.1c5.5-8,12.1-15.5,16.3-24.1   c4.1-8.4,13.9-17.8,7.9-26.5c-7-10.1-18.7-1-26.8,1.7c-15.7,5.2-17.6,1.6-15.7-13.5c4.3-34.4,7.9-68.8,16.3-103.7   c10.9,5.3,15.2,16.2,21.8,24.5c14.2,18,25.9,37.9,42.5,54c8.8,8.5,7.4,13.5-4.4,16.7c-10,2.7-26.1,0.1-25.9,14.7   c0.2,13.3,15.5,16.5,26.4,20.2c17.9,6.1,31.8,11,15,34c-7.6,10.4,3.3,21.1,13.5,26.7c17.4,9.5,35.4,17.9,54.1,27.3   c-8.3,10.3-19.7,8.8-28.8,12.8c-9.9,4.3-23.5,7.5-22.8,20.9c0.8,14.6,15.7,13.2,25.8,15.6c12.3,2.9,25.7,1.9,38.2,12.1   c-23.8,11.5-47.6,14.7-71.1,18.7c-8.5,1.5-7.8-5.7-8.4-11.1c-2.7-26.3-5.5-52.5-8.1-78.8c-3.8-38-14.6-44.3-50.4-28.8   c-8.8,3.8-17.5,7.7-28.6,7.8C1775,4096.2,1783.5,4092.4,1787.9,4086.1z M1781.7,4058.6c-0.1-0.3,0.8-0.9,1.2-1.3   c0.5,0.9,0.9,1.7,1.4,2.6c-0.5,0.5-1,0.9-1.4,1.3C1782.5,4060.4,1781.9,4059.6,1781.7,4058.6z M1929.6,4172.1   c-7.5-1.4-14-2.6-26.1-4.8C1917.4,4159.6,1925.9,4153,1929.6,4172.1z M1601.1,4018.7c21.2,2.6,21.6-12.7,22.3-29.4   c15.3,13.3,8.9,24.8,3.5,36.6c-4.2,9.2-11.3,11.3-20.4,10.2c-5.5-0.7-9.1-3.1-9.5-9C1596.7,4023.5,1597.9,4018.3,1601.1,4018.7z    M1408.8,4012.7c-1.3,11-8.7,16.1-12.4,23.2c-6.9,13.4-8,26.3,2.3,38.6c3.6,4.2,8.9,8.5,2.2,13.7c-6.5,5.1-11.6,0.5-16.1-4.2   C1365.5,4063.5,1377.6,4024.4,1408.8,4012.7z"></path>	<path class="st3" d="M5485.3,4650.6c-1.3-2.9-3.2-5.7-5.6-8.4c-9.8-10.8-23.2-14.9-36.6-19.2   C5457.2,4632,5471.3,4641.2,5485.3,4650.6z"></path>	<path class="st3" d="M3230.3,3905.4c14,37.9,5.2,73.2-19.8,103.3c-22.4,26.9-29.3,59.1-11.6,85c4.4,6.4,8.3,13,11.9,19.8   c56.9-0.7,118.5-0.7,184.1,0.4c6.1-9.9,13.9-19.3,22.8-28.5c2.1,9.7,3.8,19.4,5.3,29.1c5.3,0.1,10.6,0.2,15.9,0.4   c-1.1-8.5-2.1-17.1-3.1-25.7c-1.5-12.8,2.1-22.7,12-31.4c8.4-7.3,15.7-16.4,18.7-27.3c2.9-10.3,9.2-11.1,18.3-12.2   c33.1-4.2,60.1-17.2,68.4-53.7c2.1-9.4,8-12,17.8-12.7c27.4-1.9,47-16.3,56.4-42.5c6-16.6,10.2-33.9,15.6-52.4c2.1,4,4.6,6.8,5,9.9   c5.2,37.8,11.1,75.8,8.6,114.1c-3.1,47.5-7.9,94.9-10.8,142.4c7.8,0.4,15.7,0.9,23.6,1.4c1.7-23.6,3.5-47.2,5.4-70.7   c7-85.8,3.4-170.7-24.8-252.9c-7.9-23.1-4.3-46.9-9.1-69.9c-1.1-5.3,1.4-9.9,6.2-12.1c6.5-3,8.3,2.9,10.6,6.9   c8.6,14.8,20.5,26.3,34.7,35.5c4.9,3.2,6.3,5.6,4,13c-11.4,37.4-12.4,76.6-13.9,115.3c-3,79.1,1.2,157.9,10.8,236.6   c7.3,0.5,14.7,1,22.1,1.5c-14.6-117.3-19.2-235.5-4.9-355.7c29,13.1,59.6,18.8,91.4,22.6c-2.2,5.1-4.4,9.4-5.9,14   c-6.8,21.6-11.6,43.6,1.8,64.1c15.3,23.4,41.9,29.7,71.8,15.8c12.5-5.8,24.2-4.1,33.8,1.3c9.6,5.4,1.8,16,0.1,24.3   c-0.4,2,0,4.2-0.3,6.2c-8.2,53.2-14.3,106.8-24.1,159.8c-3.8,20.6-9.4,40.4-16.2,59.7c5.9,0.6,11.8,1.1,17.8,1.7   c18.8-60.7,26.4-123.3,30-186.6c1.3-22,4.1-43.9,6.2-65.8c2.9,63.5,2.4,126.4,3,189.4c0.2,22.4,0.5,44.8,1.4,67.2   c4.9,0.5,9.9,1.1,14.8,1.6c-0.9-13.1-1.7-26.2-2.3-39.3c-3.1-66.9,4.7-133.6,2.1-200.4c-0.3-8.5,3.7-11.8,11.4-9.4   c23.4,7.3,45.3-1.8,67.8-5.3c1.7-2.2,4.5-3.8,6.2-1.9c2.3,2.5-1.7,3.6-2.8,5.3c-6.9,9.2-9.5,21.4-22.2,26.4   c-22.6,8.8-35.4,27.5-40.7,49.7c-12.3,51.8,2.5,93.4,63.5,96.8c4.9,0.3,9.9,1.4,14.6,0.5c18-3.5,21.4,3.9,15.3,19.2   c-3.1,7.8-6.1,15.5-9.3,23.2c-6.2,15-12.6,30-19,45c6.2,0.8,12.4,1.6,18.6,2.4c6.5-14.4,13.1-28.6,20.6-42.6   c-0.3,15.1-1.4,30.1-1.7,45.1c5.5,0.7,11.1,1.5,16.6,2.3c1.8-18,4.2-36,5-54c0.4-8.5,5.7-7.7,11.6-6.7c17.1,2.9,31.8-3.4,44.1-14.4   c7-6.2,11.1-6.2,19.4-1.4c22.2,12.8,47.7,5.8,62.2-15c3.8-5.4,6.1-15.5,14.4-12.2c11.3,4.4,1.9,13.7,0.6,19.7   c-7.5,34.8-14.5,69.8-23.3,104.3c5.2,0.9,10.4,1.7,15.5,2.6c5-18,9.4-36.1,13.7-54.3c5.3-22.3,8.1-45.4,18-68.2   c5,7.7,2.4,13.4,1.5,18.5c-5.9,35.6-11.9,71.1-18,106.6c5.1,0.9,10.2,1.8,15.3,2.7c4.8-36.6,10.1-73,16.2-109.4   c1.5-8.7,1.9-14.3,13.5-12c31.4,6.3,63,10.9,94.4,17.1c10.7,2.1,20.8,6,29.7-5.2c0.9,4.1,1.8,5.6,1.4,6.6   c-15.7,53.2-5.4,71.1,48.4,81.1c11.7,2.2,11.2,7.5,8.2,15.8c-5.5,15.1-11.7,29.9-18.5,44.4c5.5,1.2,11,2.5,16.5,3.7   c6.7-18,13.5-35.8,19.4-54c2.9-8.9,7.6-11.5,17-10.4c-6.4,18.6-12.5,35.5-18,52.6c-1.6,5-3,10-4.4,15c6.7,1.5,13.5,3.1,20.2,4.7   c3.7-16.6,7.5-33.2,11.5-49.8c1.5-6.5,0.8-16.6,15.2-12.4c21.7,6.4,41-4.8,49.8-26.2c2.4-5.8,3-13.5,9.9-14.5   c18.9-2.7,31.3-13.1,40.8-29c5.5-9.2,16.5-6,24.8-6.6c10.1-0.8,4.5,9.6,6.2,14.5c6.6,18.2,14.6,35.6,32.9,43.6   c11.9,5.2,10.8,10,7.5,20.2c-11,34.8-23.1,68.9-39.5,101c6.3,1.8,12.6,3.5,18.9,5.3c3.1-5.7,6.1-11.4,9.3-17.1   c2.2,6.2,1.6,10.9,0.6,15.6c-0.3,1.4-0.6,2.8-0.9,4.1c6.5,1.9,12.9,3.7,19.4,5.6c6-29.9,11.9-59.8,22.7-88.5   c2.5-6.6,2.4-18.6,16-10.7c20.1,11.7,38.4,5.8,56.4-6.4c6.3-4.2,11.5-11.7,20.6-11.5c2.1,27,2.1,27-19.8,42   c-23.1,15.9-27.6,31.9-14.6,56.9c3.6,7-0.8,10.5-2.8,15c-4.4,10.2-4.8,19.1-0.6,27c15.8,5,31.5,10.2,47.3,15.5   c0.2-0.4,0.5-0.9,0.7-1.3c0,0.5,0,1,0,1.5c11,3.7,22,7.4,33,11.2c26.6-4.1,39.8-21.9,35.8-49.5c-1.3-8.9,0.1-12.1,7.8-15.6   c23.4-10.5,32.4-26,27.5-62.1c-1.1-8.4-1.8-15.4,4.2-23.3c24-31.6,23.7-49.6-1.4-80c-6.2-7.6-7.1-12.2-2.9-21.5   c23.2-50.4,5.4-103.3-42.8-129.6c-4.8-2.6-8.3-4.6-8-10.4c1.3-24.2-13.1-42-25.6-60.1c-36.8-53.1-75.1-57.1-122.8-14.4   c-13.1,11.7-22.4-4.2-32.6-8.3c-11.8-4.7,1.1-10.1,3-13.5c10.5-19.3,15-38.7,6.8-59.8c-2.5-6.4-6-11.6,1.6-18.2   c36.5-31.8,42.7-62.6,22.6-107.4c-2.4-5.4-7-9.9-1.9-16.9c16.3-22.2,8.4-45-0.7-67c-5.2-12.6-16.5-19.8-30.3-17.3   c-17.8,3.2-35.3,9.3-46.8,24.4c-4.2,5.6-7.7,8-14.7,8.6c-37.3,2.9-63.5,31.6-62.4,69.2c0.3,9.3-2.9,13.2-9.7,18.1   c-37.4,26.6-40.2,46.5-12,82c-38.2,23-69.4,52.8-91.6,91.9c-21.9,38.5-21.3,48.6,8.2,79.6c-9.2,9-20.9,14-32.2,18.9   c-15.9,6.9-24.9,31.9-38.6,28.5c-13.8-3.4-21.2-25.4-35.6-36.1c-15.3-11.3-28.2-25.7-38.3-42.6c14.5-10,30-14,44.8-19.8   c18.9-7.4,21.2-17.7,8.4-33.5c-9.2-11.3-18.7-22.5-28.8-33c-12.8-13.4-9.5-18.9,7.7-23.9c28.8-8.4,29.8-13.2,21.4-42.1   c-9.4-32.6-20.7-64.5-28-97.7c-3.5-16-2.5-33.5-12.1-50.3c-9.1,17.6-16.3,33.4-25.1,48.3c-21.5,36.1-35.7,77.4-72.6,102.9   c-6.8,4.6-18.5,8.5-15.6,19.7c3,11.7,15.2,9.9,24.4,12.1c0.8,0.2,1.3,1.9,2.3,3.7c-23,30.9-51.9,52.4-91,59.3   c-12.3,2.2-24.5,7.1-32.2,17.6c-6.6,9-11.4,9.2-19.4,1.5c-14.5-13.9-32-19-51.9-14.1c-1.6,0.5-3.1,1-4.7,1.5   c0.4-1.6,0.7-3.1,1.1-4.7c19.2-33.1,0.3-58.8-18.8-84.7c78.6-9.9,110.1-76.5,67.7-140.1c-8.3-12.4-7.1-16.3,5.2-24.2   c44.2-28.5,62.6-68.1,53-110.8c-6.8-30.3-27-51.3-50.7-69.3c-6.3-4.8-11.7-8.8-11.4-18.1c1.5-46.9-19.3-84.8-49.9-118   c-57.4-62.5-168-97.9-245.4-21.2c-8.3,8.2-11.9,5.3-17.1-2.4c-8.2-12.2-18.9-22.3-30.4-31.4c-93.2-73.5-225.2-64.9-318.4,11.7   c-32.3,26.6-46.2,60.9-30.6,102.4c3.7,9.8,0.5,13.8-7.1,18.1c-16.2,9.2-27.5,23.4-37,39c-31.1,51.1-34.5,106.6-23.3,163.4   c3.2,16.1-0.2,25.8-10.9,36.5c-20.5,20.4-34.8,46-30.9,74.8c3.4,25.2,5.3,44.5-24.9,51.6c-3.3,0.8-5.8,5.7-8.4,9   c-14.5,18.2-23.8,39.2-31.8,60.7C3227.1,3840.8,3217.9,3871.9,3230.3,3905.4z M4879.8,4133.9c4.6-1.3,9.4-3,14.1-3.2   c8.6-0.4,15.8-13.8,23.9-5.8c9.8,9.6,16.7,22.1,17.6,34.4c-0.3,4.5-0.4,6.6-0.6,8.7c-1.6,15.9-22.5,23.9-21.9,34.6   c0.6,11.1,12.8,22,10.2,37.2c-3.9,23-15.6,34-39.9,34.1c-3.6,0-7.2,0.6-8.7,4.3c-2.1,5.2,2.7,6.9,5.4,9.9   c14.8,16.3,13.3,35.4-3.4,43c-3.1,1.4-8.5,3.7-9.7,2.5c-13.5-14.2-31.5-7.1-47.1-10.8c-8.7-2.1-19.4-3.9-20.1-15.1   c-0.6-10.2,5.1-18.5,14.6-23.4c5.8-3,15.6-3.5,12.6-13.1c-2.7-9-11.7-4.6-18.2-5.2c-15.1-1.4-19.5-10-10.5-22.2   c11.5-15.5,27.6-22.2,46.6-23.6c7.5-0.6,19.3,2.3,19.8-9.6c0.4-10.3-10.2-6-16.2-7.9c-9.2-2.8-9.7-10.6-9.7-18.5   C4838.7,4163.4,4857.8,4140.1,4879.8,4133.9z M4735.9,3918.6c15.7,14.4,23,31.3,38.7,43.1   C4748.5,3964.7,4735.3,3949.8,4735.9,3918.6z M4691.4,4265.2c-0.8-1.4-2.1-2.8-2.1-4.2c0-1.4,1.3-2.9,2-4.3   c0.7,1.7,1.3,3.4,1.9,4.8C4692.5,4263,4691.9,4264.1,4691.4,4265.2z M4711.8,4172.9c2-7.4,9.8-10.1,15-7.8   c8.5,3.8,0.3,9.4-1.5,13.5c-8.5,18.8-17.6,37.3-26.5,55.9c-0.8-0.2-1.5-0.4-2.3-0.5C4701.5,4213.6,4706.4,4193.2,4711.8,4172.9z    M4410.3,4034.8c7.1-32.1,27.7-51.9,57.9-62.8c11.1-4,22.2-8,33.5-11.2c8.4-2.4,14.2-6.7,13.7-15.7c-0.5-9.2-8-9.4-15.3-10.4   c-29.2-4-40.4-21.2-28.6-48.4c19.9-46.3,51.9-81.7,99.8-100.5c5.9-2.3,13-2.7,13.3-10.7c0.3-8.5-8.2-5.7-12.5-7.9   c-19.9-10.3-24.5-27.1-12-45.9c10.3-15.5,25.8-22.4,49.9-26.1c-20.7-12.7-19.7-25.8-10.9-39.4c10.6-16.6,21.7-32.7,44.3-33.5   c7.1-0.3,11.3,4.1,15.9,8.6c3.6,3.5,6.7,10.6,13.3,5.7c7.5-5.5,1.3-11.4-1.4-16.4c-2.2-4.1-6-7.4-10-12.1   c6.1-3.1,11.2-6.7,16.8-8.3c13.8-3.9,28.6-15.9,41.4,1.2c11.8,15.8,9.5,36.4-5.2,53.1c-8,9.1-0.1,16.1,3.8,22.2   c15.4,23.9,17.1,47.7,3.6,72.8c-5.8,10.8-11,19.8-26.9,16.5c-14.9-3.1-16.3,6.4-10.5,17.9c6.8,13.6,14.6,26.5,14.1,42.9   c-0.5,16.8-6.8,29.1-21.5,37.6c-21.1,12.2-38.2,27.5-38.1,54.7c0,8-4.5,11.1-12.2,14c-61.5,23-82.5,83.8-49.5,141.6   c4.9,8.6,11.5,15.5,20.1,20.8c5.5,3.4,18.2,3.9,10.3,15c-5,7.1-13.6,13.2-23.3,6.8c-5.7-3.7-10.3-11.3-17.5-4.8   c-6.5,5.8-1.5,12.5,0.8,19c6.9,19.6-11,41.5-30.5,37.3c-3.9-0.8-7.2-4.1-11.1-5.4c-9.2-3,8.1-18.7-8.3-17.4   c-12,1-9.9-11.6-16.2-15.8c-1.5,0.5-2.8,0.6-3.7,1.3c-7.7,5.3,2.6,23.2-15.8,21.6c-20.4-1.8-41.2-3-53-22.8   c-6.9-11.6,1-21.4,9.6-28.9c5.9-5.2,13-9.5,11.5-18.2c-1.8-10.6-11.5-9.9-19.5-11.9C4414.2,4066.6,4406.5,4052.1,4410.3,4034.8z    M4388.7,4012.7c8.8,1.2,9.7,6.2,6.5,13.4c-4,9.3-6.6,19-5.9,31.8c-22.4-18.5-42.5-35-64.3-52.9   C4348.7,4003.2,4368.4,4010,4388.7,4012.7z M4116.1,3915.2c2.2,6.4,1.7,15.4,11,15.2c9.2-0.1,8.9-8.6,10.5-15.4   c8.6-37.5,38.2-46.1,70.5-18.4c-14.9,6.5-28.3,12.1-41.5,18.1c-7.7,3.5-15.7,7.6-13.6,18.2c2.1,11,11.2,10.9,19.7,11   c18.4,0.1,36.7,0,56.4,3.4c-12.6,5.9-25.2,12-38,17.8c-29.8,13.5-58.6,28.8-86.8,45.2c-7.7,4.4-15.2,8.6-12.6,18.9   c2.7,10.2,11.2,10.1,20.2,9.9c29.2-0.5,58.1,1.6,86.3,11.2c15.4,5.3,12.8,12.6,4.1,20.4c-12.9,11.7-29.3,11.8-42,2.2   c-13-9.8-17.5-7.6-27,4.6c-17.7,22.9-43.2,20.7-60.8-2.4c-4-5.3-7.3-10.1-2.4-16.7c2.6-3.5,8.4-7.9,2.9-12   c-3.2-2.4-11-2.8-13.8-0.5c-15.1,12.6-31.2,4.1-45.9,1.6c-19.9-3.4-36.6-13.6-39.7-36.9c-3.5-26.4,9-55.7,28.1-65.3   c5.9-2.9,11.7-3.9,18.1-1.2c4.5,1.9,10.1,3.7,13-1.7c3-5.5,1-11.4-4.4-14.5c-10-5.9-7.8-11.2-0.3-17.1c8.8-6.8,16.7-14.9,26.3-20.4   C4078.9,3875.9,4106.7,3887.5,4116.1,3915.2z M4017.6,3595.7c-0.2-19.8-15.6-41.4-7.8-56c7.1-13.3,31.9-16.3,46.1-29   c16.2-14.6,31.2-30.1,39.8-50.4c5.1-12.1,9.8-10.8,16.9-1.8c6.9,8.7,15,16.4,22.1,25c16.6,19.9,25.7,42.5,13.9,67.2   c-12.9,27.1-32.4,48.5-63.8,54.9c-5.1,1-11.7-2-14.1,5.4c-2.3,7.1,2.5,11.4,6.7,16.3c6.9,7.8,13.6,15.8,19.6,24.3   c12.5,17.8,25.7,36.1,14.2,59.2c-13.3,27-34,45.9-65,49.2c-12.1,1.3-24.9,2.8-37.1-2.2c-4.8-2-11.6-4.6-13.9,3   c-1.9,6.5,3.5,10.4,8.9,12.2c12.2,4.2,20.9,13.7,30.6,21.2c15.4,11.9,22.5,28.5,18.4,47.9c-3.6,17-17.9,24.1-32.7,28.8   c-18.4,5.9-37.2,10.6-58.8,10.3c2.6-8.6,12.8-8.9,12.9-19.3c-18.1,3.4-36.2,2.4-54.2,2.2c-5.4,0-12.2,0.6-16.1-2.3   c-10.5-7.6-16.9-3.3-25.2,3.8c-21.5,18.5-47.7,17.9-62.8-0.2c-12.8-15.3-7.6-57.5,9-70.9c6.2-4.9,14.3-4.7,21.9-5.7   C3945.2,3776.4,4018.8,3692.2,4017.6,3595.7z M3871.8,3403.4c8-4.6,10.8,3.9,13.5,8.7c8.7,15.1,16.7,30.6,38.6,32.1   c-11.5,15.8-22.2,10.3-32.3,3.6c-9.9-6.6-17.3-15.7-22.9-26.2C3864.9,3414.5,3864.8,3407.4,3871.8,3403.4z M3786,3670.1   c0.3-3.6,0.6-7.5,4.8-8c2.2-0.2,5,1.6,6.9,3.2c33.6,27.9,49.9,22.5,61.4-21.6c12,10.5,10,22.3,3.3,33.4   c-13.4,22.1-47.9,27.2-67.6,10.8C3789.2,3683.2,3785.4,3677.8,3786,3670.1z M3432.3,3534.8c5.9-27.5,15.6-53.1,41.1-68.9   c2.2-1.4,5.1-1.8,7.8-2.2c1.1-0.2,2.4,0.9,5.1,1.9c-18.9,23.6-33.8,48.8-37.1,79.3c-0.2,2.2-2.8,5-4.9,5.8   c-3.8,1.5-6.7-1.1-8.1-4.4C3434.5,3542.6,3431.6,3538.2,3432.3,3534.8z M3333.4,3713.7c-17.9-17.6-10.5-37.4-4.1-56.4   c4.7-13.9,13.1-25.9,24.7-35c6.9,2.4,6.9,8.9,8.9,13.7c40.6,95.7,127.8,138.4,227.4,110.9c8.2-2.3,13.4-4.7,17.2,6.4   c15,43.2,20.4,87.3,11.9,132.4c-3,15.8-10.1,30.6-25.3,38.8c-11.7,6.3-24.2,13.1-33.6-4c-3.1-5.7-9.2-7.2-14.6-4.8   c-9,4-6.9,12-6,19.9c4.6,39.8-8.3,58.8-45.3,66.2c-11.9,2.4-23.1,3.9-23-15.5c0.2-30.9-16.2-53.7-40.8-71.2   c-12.4-8.8-23.9-18.9-36.8-27c-25.4-16.1-29.3-42-33.2-68.2c-4.4-29.1-13.9-55.4-42.9-74.2c10.7-3.4,21.8,1.2,25.3-10.7   C3346.1,3725.2,3339.3,3719.6,3333.4,3713.7z"></path>	<path class="st3" d="M5230,4463.1c-16.7-0.1-26.3,9.3-29.2,24.2c5.3,2.6,10.6,5.2,15.9,7.8c-4-6.9-2.3-14.5,5.3-19.9   c3.5-2.5,6.6-5.2,9.6,1.1c6.5,13.8,9.5,9.7,11.6-2.4c2.3-13.5,12.2-21.3,23.1-27.8c6.1-3.6,12.8-7.4,18.1,0.8   c4.4,6.6,3,13.2-2.4,18.9c-1.9,2-4.2,3.6-6,5.8c-3.2,4.1-9.9,8.2-4.1,13.9c5.7,5.5,11.3,1.6,16.3-3c5.5-5.2,11.1-10.5,17.4-14.6   c4.7-3,11-9,16-0.7c3.7,6.1,1,12.3-4.2,16.8c-3.6,3.1-8.5,4.9-11.7,8.4c-4.1,4.4-6.5,9.9,2.3,12.3c23.6,6.3,9,17.4,0.4,20   c-6.5,1.9-9.6,6.9-12.6,11.7c5.1,2.8,10.2,5.5,15.3,8.4c11.1-7.4,19.9-17.1,21.4-26.4c0.4-2.7,1-6.2-0.2-8.2   c-5.4-9-1.2-16.9,0.9-25.7c5.3-22.8-2.8-31.6-26.7-29.7c-4.7,0.4-7.4-0.2-10.5-4c-16.7-19.8-27.2-19.9-47.1-2.4   C5242.8,4453.5,5240.5,4463.2,5230,4463.1z"></path>	<path class="st3" d="M5027.6,4368c9.1,5.2,10.9,10.6,4.1,17.8c-5.8,6.1-11.5,12.3-17.3,18.4c6.9,2.8,13.8,5.6,20.7,8.4   c0.7-0.6,1.5-1.3,2.2-2c-0.2,0.9-0.5,1.7-0.7,2.6c7.3,3,14.5,6,21.8,9.1c1.1-2.8,2.3-5.6,3.5-8.4c4.8-11.7,7.7-19.1,24.1-10.2   c28.1,15.4,55.5,4.7,68.8-24.4c5.3-11.5,9.7-12.2,21.7-9.5c22.4,5,44.9,1.1,61.3-17.2c46.6-52,21.6-142.3-45.3-161.7   c-11.6-3.4-17-9.1-22-19c-22.7-44.3-78.3-58.7-119.9-31.4c-15.3,10-27.9,23.1-39,37.5c-16.6,21.4-20,44.1-2.6,66.9   c4.5,6,4.9,9.6-0.3,15.8C4972.9,4303.8,4979.5,4340.4,5027.6,4368z M5048.5,4396.3c-0.5,5.4-1.6,10.3-8.1,12.4   c-2.8-7.1,2.8-10,6.1-13.8c1-2.3,1.8-4.7,3-6.9c0.1-0.2,2.8,0.2,2.9,0.7C5053.5,4392.2,5051.9,4394.8,5048.5,4396.3z    M5061.1,4380.3c-1.2,0.9-3,3-5.2,3.7c-4.1,1.3-3.7-2.3-3.8-4.6c-0.1-2.8,1-5.1,4.4-5C5059.4,4374.5,5061.6,4375.3,5061.1,4380.3z    M5040.7,4270.6c8.6-1.7,20,0.3,20.3-12.6c0.2-11.2-9.7-10.8-17.9-13c-17.9-5-24.7-19.9-20.1-35.8c8.6-29.8,29.6-50.5,59.4-59.1   c27-7.8,48.6,5.3,66.7,24.5c6.8,7.2,12.7,14.7,2.7,25c-6.2,6.4-6.8,16.5-0.4,22.8c7,7,13.9,1.5,19.1-4.9c4.9-6,10.6-4.2,17-2.3   c34.5,10.3,53.5,38.7,53.1,83.5c0.6,11.5-1.8,25.6-9.1,38.8c-9,16.1-23,22-40.3,19.4c-15-2.2-28-7.1-30.3-25.9   c-1.1-9.1-8.1-19.1-18.2-15.8c-12.5,4-9.3,17.2-4.5,24.8c8,12.7,11.7,24,5.1,38.5c-5.4,12-12.7,19.4-26.3,19   c-12.6-0.4-22.1-6.1-22.9-19.2c-1.1-17.1-13.2-18.8-25.5-21.2c-22.2-4.3-43.2-9.7-53.6-33.8   C5004.8,4299.9,5015.8,4275.6,5040.7,4270.6z"></path>	<path class="st3" d="M2409.9,4061.3c-14.2,1.9-24.1,23.4-42.5,7.4c-24.4-21.2-51.9-17.4-77.2-2.6c-21.6,12.6-30.2,34.6-25.9,59.1   c2.3,12.8-5.5,11.9-12,14c-44.1,14.4-58.2,50.7-36,85c118.4-26.4,232.7-46.6,340.6-62.1c-2.1-16.7-11.5-31.8-28-41.5   c-17.6-10.4-32.3-22.1-46.8-36.7c-16.2-16.3-19.8-32.9-20.3-53.1c-0.2-9,1.6-11.7,11.8-9.8c33,6.2,61.8-2.6,85.7-26.8   c20.1-20.3,24.8-17.6,53.6-15.1c28.4,2.5,33.1,22.4,40.4,41.2c8.7,22.2,4.1,44.9-2,67.1c-5.9,21.4-11.8,42.9-17.6,64.3   c4.6-0.6,9.2-1.2,13.8-1.7c5.6-16.1,9.7-33.1,16.8-49.1c3.4,15.3,5.2,30.9,7.9,46.1c6.8-0.8,13.5-1.6,20.2-2.3   c-6.6-49.7-5.6-100-5.4-150.2c0-11.2,3.9-23.1-5.3-33.9c-4.4-5.2,9.6-21.6,14.7-17.8c16.7,12.4,32.4,5.6,48.7-1.7   c1.1,17.5,4.7,33.1,4.9,49.2c0.8,45.3-1.6,90.3-7.6,135.2c-0.6,4.6-1.2,9.3-1.6,14c7.7-0.8,15.4-1.6,23.1-2.3   c1-15.4,1.9-30.9,3-46.3c0.5-6.7-1.8-14.9,6.6-20.1c3.1,21.9,6.1,43.3,9.1,64.5c5.4-0.5,10.8-1,16.1-1.5   c-1.3-10.8-2.7-21.5-4.2-32.2c-11.2-80.4-18.1-161.3-23.8-242.2c-2.5-35.1-1-35,33.2-28.1c15.8,3.2,24.4,5.8,14.1,26   c-17.4,34.3,1.1,71.6,35.8,74.2c16.6,1.2,19.8,6.5,17.5,20.5c-0.8,4.8-0.6,9.8-0.4,14.6c2.7,50.1,49.7,76.6,92,50.6   c14.4-8.8,19.2,4.4,19,8.5c-0.7,19.7,8.9,37.4,7.5,57.3c-0.9,12.5-2.8,24.9-5.2,37.5c6.4-0.3,12.8-0.6,19.1-1   c2.4-8.4,5.1-16.9,9.1-25.3c1.4,9.1,2.6,17.2,3.7,24.7c4.8-0.2,9.5-0.4,14.1-0.6c-1.7-19.5-2.3-38.8-3.1-58.1   c-0.9-21.6,14.5-18.2,24.5-18.3c14.3-0.1,6.3,12.7,5.7,18.9c-1.7,18.9-4.2,37.8-6.7,56.7c8.3-0.3,16.8-0.6,25.4-0.9   c3-26.9,4.3-53.8,3-80.9c-1.9-38.9-5.3-77.8-6.1-116.7c-0.4-19,7-37.7-3.7-56.8c-5.5-9.9,7.1-11.7,13.4-13.4   c7.2-2,14.3,0.5,14.1,10.1c-0.2,8.3-1.1,16.7-1.9,25c-7.7,77.7-4.5,154.9,3.8,232.1c6-0.2,12-0.4,18.1-0.5   c-0.8-27.5-1.8-55-3.1-82.4c-0.6-12.6,2.4-20.9,12.9-29.8c18.6-15.6,30.2-37.6,28.5-62.2c-1.6-24.6-6-48.5,11-70   c2.6-3.2,2.6-9.6,1.8-14.1c-2.1-11.2,3-16.6,11.8-23.4c47.3-36.5,54.9-77,25.3-129.4c-6.7-11.8-15-22.6-23-34.7   c20.9-7.7,34.2-21.8,42.6-41.3c16.7-38.9,9.5-107.9-28.4-133.2c-10.1-6.7-9.4-11.1,0.2-17.8c12.3-8.6,20.1-21.5,24.9-35.4   c19.6-56.9,8.2-109.4-26.8-156.7c-7-9.5-7.3-12.5,1-20.2c19.6-18.2,28.9-42.7,23-68.1c-16.1-68.6-42.5-131.8-109.4-167.8   c-11.1,0-22.3,0-33.4,0c-1.5,4.4-5.1,6-9,7.9c-39.6,18.8-53.6,53.4-58.3,94.1c-1.8,16,11.2,31.8,7.9,43.5   c-3.7,12.9-27,13.3-37.4,25.9c-24.7,30-40.2,63.8-46.1,102.6c-4.7,31,7.4,52.2,32.6,67.9c12.6,7.9,26.6,12.5,42.4,15.4   c-19.5,26.4-32.6,53.7-42.3,82.8c-9.4,28-8.8,53.6,16.7,73c9.3,7.1,2.7,12.4-0.5,17.4c-12.4,19.6-21.1,40.8-25.4,63.2   c-4.2,21.8-6.4,44.1,10.7,63c4.3,4.8,20.3,7.7,7.8,17.6c-9.6,7.6-14.5,28.6-34.6,15.5c-19-12.4-42.3-13.1-59.7-2.4   c-21.6,13.2-32.1,4.5-46.8-9c-18.9-17.3-43-28.2-61.5-46.4c-3.7-3.6-11.1-6.5-8.4-12.7c2.4-5.4,9.6-4.2,15.1-4.7   c18-1.3,35.9-3.1,53.9-4.2c8.1-0.4,16.3-0.9,18.8-9.7c2.8-9.9-6.2-12.5-12.8-16.2c-20.3-11.5-40.6-22.9-65.1-36.8   c15.2-5.3,26.2-8.7,36.8-12.9c15.8-6.3,17.4-13.8,5.5-26c-14-14.2-28.7-27.8-38.6-47.3c15.8-4,27.8,5.8,41.1,6.7   c6.8,0.5,14.5,3.1,19.4-3.6c5.4-7.4-1-13.2-4.6-18.6c-34.5-50.9-64.7-103.7-76.3-165.2c-1.3-6.8-5.2-13.3-13.9-13.4   c-7.8-0.1-10.7,5.9-12.9,11.8c-16.1,42.9-37.2,83.5-58,124.3c-12.8,25.1-26.9,48.4-53.1,62.2c-8.2,4.4-15.8,12.2-20.7,20.2   c-6.2,10.1-10.7,10.8-20.3,4.2c-16.1-11.2-33.5-13.6-50.2-0.8c-17.9,13.8-34.4,30-39.8,52.2c-5.4,22.1-18.6,12.6-27.9,8.4   c-9.4-4.2-16.4-13.5-25.1-21.1c6.9-6.6,11.9-5.9,16.5-6.6c8.1-1.3,17.6-2,21.1-10.8c4.1-10.2-6.6-13.9-11.2-20.3   c-3.1-4.3-9.3-6.4-9.3-13c33.7-4.3,33.7-4.3,19.8-35.8c-18.1-41.1-37.7-81.7-42.8-127.2c-0.7-6.6,2.2-15.2-7.4-17.1   c-8.9-1.8-14.1,5.1-18.1,11.7c-7.9,13.1-14.6,26.9-22.8,39.9c-20.8,32.9-42.2,65.5-63.3,98.2c-4.1,6.4-10.2,12.9-2.4,20.2   c6.8,6.4,13.4,0.8,18.7-2.7c11.6-7.6,22.4-16.4,33.5-24.6c1.8-1.4,2.9-5.4,5.6-2.9c2.1,1.9,0.4,4.8-1.9,6.4   c-5.1,12.4-14.3,22.1-22.5,32.4c-15.6,19.6-31.6,38.9-47.1,58.5c-4.2,5.3-9.9,11.6-4.1,18.5c5.4,6.4,13.1,2.9,19.5,1.1   c6.6-1.8,12.8-4.9,19.2-7.4c1-2.8,3.5-4.6,5.4-2.3c2.1,2.5-1.3,3.8-3.2,5.1c-16.4,19.4-32.8,38.9-49.3,58.2   c-6.2,7.3-21.9,10.8-15.5,23.2c7.9,15.1,18.9-1.4,28.8-1c1.9-3.1,4.9-5.1,7.4-1.7c1.5,2.1-1.4,4.3-3.9,5.2   c-7.4,8.2-15.2,16.2-22.2,24.8c-6.9,8.4-19,15.8-15.7,27.7c3.3,11.9,17.6,9,27,10.5c15.4,2.4,13.2,8.7,6.4,17.7   c-2.5,3.3-5.6,6.2-8.5,9.2c-32.5,33.2-36.4,66.5-7.2,102c15.8,19.2,27.3,34.8,7.6,57.1c-1.6,1.8-1.5,5.3-2.1,8   c-14.9,69.1,41.1,126.2,111.6,112.6c12.1-2.3,15.1,1.1,14.4,11.9C2417.1,4051.2,2419.9,4059.9,2409.9,4061.3z M3114.8,3867.6   c0.5-21.6,21.1-8,31.1-14.8c6.8-4.6,11.2,4.4,10.4,10.7c-1.4,10.1-3.9,20-17.7,21.5c-17.9,2-19.4,7.5-7.8,21.9   c24.4,30.5,19.2,61.9-16.1,83.4C3114.5,3947.9,3113.8,3907.7,3114.8,3867.6z M3012.7,4065.1c-6.4-9.7-9.1-17.5-4.6-26.2   c0.4-0.7,4.7-0.8,5.7,0.3C3021.3,4047.3,3016.8,4055,3012.7,4065.1z M2997.2,3718.3c0.1-0.8,0.2-1.5,0.3-2.3   C3000.1,3717.6,2998.2,3717.8,2997.2,3718.3z M2834.8,3856.1c18.3-16,22.6-26.9,12.9-50.8c-5.2-12.8-1.5-36.8,19.9-48.1   c8.6-4.5,7.4-21.4,23.2-22.5c19.2-1.4,35.8,0.5,47.6,18.1c5.8,8.6,13.3,17.6,25.5,14.1c11.6-3.4,10.6-13.9,11.8-23.9   c1.4-11.6,7.3-21.8,20.8-23.8c-10.6,29.6-25,57.5-26.1,90.4c-1.4,42.5,22.2,52.6,53.5,52.3c29.3-0.3,38.1,6.7,39,36.6   c1.1,34.8,0,69.7,0.4,104.5c0.1,9.4-4.7,13.6-12.4,16.9c-18.6,8-52.1-0.1-63.9-17.3c-4.4-6.4-5.4-10.7-12.6-2.5   c-26.8,30.5-76.6,10.9-84.1-25.9c-3.2-15.4-5.8-30.6-0.1-45.2c6.3-16.3,0.6-18.2-13.1-13.8c-17.1,5.5-32.2,1.7-42.6-12.5   C2823.6,3887.6,2822.9,3866.4,2834.8,3856.1z M2830.3,3768c9.5,5.8-5.4,19.4-4.4,32.3c-9.7-8.3-19.4-16.7-29.7-25.6   C2807.7,3765.4,2823.7,3764,2830.3,3768z M2449.4,4064.2c-3.4,0.3-8.4-2.1-10.6-4.9c-7.6-9.6-7-22.2-8.5-33.3   c-1.2-8.8,12-8.7,20.1-19.5c1.6,20.3,2.9,33.2,3.6,46.2C2454.1,4056.9,2456.4,4063.5,2449.4,4064.2z M2668.4,3995.4   c-1.8,7.7-1.9,15.9-3.2,27.3c-3.7-11.4-5.9-19.9-9-27.9c-6.7-17-6.9-16.9,13.3-24.9C2671.8,3978.8,2670.5,3986.9,2668.4,3995.4z    M2438.7,3602.2c14.4-13.3,28.5-5.4,42,1.1c19.8,9.5,21.8,8.7,23.6-12.5c2-23.1,13.6-42.1,27.5-59.5c7.5-9.5,18.7-12.2,30.1-7.1   c10.7,4.8,21.8,9.9,21.6,24.8c-0.1,8.3-1,18.7,11,18.5c10.9-0.2,8.4-10.2,9.8-17.5c1.4-7.4,4.3-14.6,7.2-21.5   c3.9-9.2,7.5-17.8,19.7-6.3c8.9,8.3,20.4,1.3,29.7-1.6c15.1-4.8,29.3-12.2,47.9-20.3c-11.8,33.9-28,62-42.2,91   c-15,30.6-26.3,62.6-37.5,94.7c-4.2,12-8.8,25.1,0.1,35.7c9.7,11.5,22.9,5.3,34.9,1.9c1.7-0.5,3.9,0.5,8.4,1.3   c-12.3,27.2-24.1,53.4-35.9,79.6c-4.2,9.5-7.9,19.1-12.2,28.6c-2.7,6.1-4.7,11.9,1.2,17.1c6.7,6,13.1,2.6,18.9-1.5   c16.1-11.4,27.2-27.8,41-41.5c5.2-5.2,9-17.5,19.2-11c9.6,6.1,23.1,7.6,25.5,24.2c4.2,28.6,9.5,57.1,11.9,86   c0.8,9.4,0.2,18.4-9.7,23.2c-9,4.3-18.4,3.7-25.3-3c-10.8-10.5-14.9-7.9-22.6,4.5c-12.3,19.9-30.4,37.5-55.8,32.2   c-24.3-5.1-38-23.1-46.4-48.2c-6.4-18.9-1.7-28.3,9.6-42.4c40.1-50.2,9.7-133.6-56.3-157.8c-15.8-5.8-32-7.7-49-5.4   c-22.7,3.1-44.1-13.1-56.2-41.1C2419.9,3644.4,2423.6,3616,2438.7,3602.2z M2363.4,3449.5c0.8-0.8,1.6-1.5,2.3-2.3   c-0.1,0.9-0.3,1.9-0.4,2.8C2364.6,3449.9,2364,3449.7,2363.4,3449.5z M2334.4,3557.3c0.6-0.4,1.3-0.8,2-1.2   c-0.1,0.4-0.3,0.9-0.6,1.2C2335.6,3557.5,2334.9,3557.3,2334.4,3557.3z M2286.1,3713.1c15.4-21.7,31.8-40.2,49.2-57.9   c6.4-6.5,18.5-12,13.6-23.4c-4.5-10.4-16.1-2.8-24.4-4.7c-0.7,0.8-1.3,1.6-2,2.4c-2.1-2-0.9-2.8,1.2-3.2   c9.3-20.9,27.6-35.4,38.5-55.2c3.9-7,12.8-13.8,6-21.7c-7.1-8.2-14.8,1-22,3.6c-2.9,1.1-6,1.6-9,2.3c15-22.6,30.1-45.2,44.9-67.9   c3.8-5.8,6.4-12.3,10-18.2c4.3-7.2,5.4-14.9,0.4-21.4c-5.1-6.8-12.3-4-19-1.2c-2.1,0.9-4.9,0.3-7.4,0.2   c13.2-28.2,32.5-52.6,50.8-85c9.8,42.9,27.3,76.8,40.4,112.5c2.8,7.6-0.6,9.9-8.1,9.4c-4.8-0.3-9.7,0.5-14.6,0.8   c-6.7,0.4-12.5,2.4-14.8,9.4c-2.2,6.9,1.7,11.5,6.2,16.4c6.8,7.3,23.6,9.6,20.4,20.2c-3,10.1-18.9,2.3-28.5,6.8   c-7.9,3.6-19.2,2.3-21.6,13.3c-2.6,12.2,7.4,17.4,15.9,21.7c16.5,8.2,23.2,14.2,8.8,33.8c-21.1,28.8-9.6,72,20.6,102   c4,4,18.7,7.7,7.9,16c-9.7,7.4-9.6,31.2-32,20.2c-14.3-7-30.2-9.5-46.4-9.3C2341.5,3735.5,2316.3,3718.6,2286.1,3713.1z    M2350.8,4003.9c-25.4-11-38.5-31.3-42.8-57.4c-4.2-26.1,9.8-45.8,36.4-51.6c10.8-2.4,20.3-5.6,16.9-18.2   c-3.1-11.7-12.8-13-23.5-8.2c-9.5,4.2-17.6,1.1-24.3-6.1c-3.8-4.1-7.5-8.2-11-12.5c-17.7-21.9-28-45.5-11.7-72.4   c15.2-25.1,40.8-29.8,67.1-28.6c15,0.7,29.9,5.6,44.5,9.6c12.1,3.3,23.9,7.4,26.8,22.6c1.1,5.6,6.1,9.2,10.9,12.1   c6.7,4,13.8,7.7,21,1.3c7.1-6.3,4.8-13.5,1.2-20.9c-12.6-25.6-1.9-41.9,27.5-42.9c59.5-2.2,114.9,54,93.5,125.3   c-6.8,22.5-15.1,24.4-33.6,11.7c-5-3.5-10.3-6.9-17-6.9c-12.1,0.1-26.1-0.1-29,13.9c-2.7,13,11.6,14.8,20.1,20.1   c11.1,6.9,27.4-4.4,35.8,11.2c7.3,13.4,8.1,27.8,7.4,42.5c-1.3,26.8-24.4,51-56.1,58.9c-2.7,0.7-5.4,1.4-8,2.3   c-11.4,4-22.5-0.7-32.5-3.9c-19.1-6.1,8.2-16.9-3.2-25.6C2432.8,4006,2395.7,4023.4,2350.8,4003.9z"></path>	<path class="st3" d="M1183.2,4348.9c7.6,4.4,10.7,9.7,10.1,18.5c-3.3,44.9,29.2,83,75.7,84.4c23.8,0.7,31.9,14.4,41.4,30.3   c10.3,17.3,12.7,36.4,14.1,55.9c0.1,0.8,0,1.6-0.1,2.5c5.8-3,11.6-6,17.4-8.9c-0.4-2.9-1.2-5.8-1.4-8.7   c-2.4-27.1-18.6-47.1-34.5-67.3c-3-3.8-9.5-8.3-2.5-13.9c5.2-4.1,6.9-13.8,14.7-12.8c6,0.8,5.9,8.8,7.4,13.8   c8.3,28.4,19.3,55.2,38.6,77.7c4.4-2.2,8.8-4.3,13.1-6.5c-13-21.8-24.8-44.2-35.1-67.5c-4.2-9.4-3.6-13.1,6.6-18.7   c36.8-20.2,43.6-67.7,15.4-98.2c-4.2-4.5-7.2-7.8-6.3-15.7c5.8-51.1-37.4-89.2-85.5-72.4c-22.6,7.9-43.1,11-60.2,6.7   c-52.3-1.1-69.4,22.1-54.1,66.2C1162.8,4328.3,1170.1,4341.1,1183.2,4348.9z M1167.3,4284.5c3-20.5,20.7-23.2,35.9-25.3   c12.6-1.8,28.6-4.5,32.5,15.5c2.2,11.1,10.5,14.2,20.5,12.8c11.2-1.6,5-9.8,6-16c3.2-19.2,20.5-18.3,33.9-19.2   c17.5-1.2,45.3,27,47,44.4c1,10.1-5.3,11.2-12.9,11.7c-6.7,0.5-12.6,3.2-13.2,10.8c-0.6,7.7,5.5,10.7,11.4,13   c5.1,2,10.5,3.5,15.7,5.3c13.9,5,22.6,15.5,21.9,29.8c-0.9,16.1-6.2,32.6-21.5,40.7c-17.2,9.1-20.7-6.1-25.2-18.9   c-7.2,3.4-6.8,9-8.7,13.1c-12.3,26.5-28.1,36.3-49.6,30.4c-29.9-8.4-55.1-38.8-51.9-62.9c1-7.5,4.8-12.7,12.2-15.2   c5.9-2,9.6-6.4,7.4-12.8c-2.1-6.1-7.5-7.2-13.7-6.6C1187.9,4338,1163.2,4312,1167.3,4284.5z"></path>	<path class="st3" d="M1152.4,4635.9c21-12.5,42.1-24.8,63.3-36.8c7.3-8.6,13.7-18.1,19.6-27.7c12.2-19.9,9.9-41.8-5.7-54.9   c-7-5.9-11.7-12.8-16.8-20.1c-9.6-13.8-24.1-20.4-41.2-19.5c-16.3,0.8-21.5,13.1-25.9,26c-1.1,3.1-1.9,6.3-3.2,10.3   c-17.9-10.1-40.4-14.9-50.3,0.4c-11.9,18.6-24.5,37.7-34.1,58.1c-11.8,10-10.7,21.1,1,38.9   C1079.3,4641.3,1118.6,4643.9,1152.4,4635.9z M1058.3,4571.7c9.1-3.4,14-14,26.6-12.5c9.2,1.1,7-8,6-14.1   c-2.3-14.7,0.7-26.4,17-30.5c15.8-4,24.7,4.6,31.4,17.5c3,5.8,4.1,16.2,12.9,13.3c10.2-3.4,4.2-12.5,3.1-19.8   c-1.2-8.2-2.2-16.7,1-24.7c3.8-9.5,9.6-18.6,21.2-15.5c10.7,2.9,24.6,5.1,23.7,21.3c-0.6,9.9-0.4,14.1,12.9,14.1   c15.7,0,20.2,15,16,27.9c-11.4,34.6-35.2,64.2-67.8,74.4c-20.6,6.4-49.7,7.3-73.8-4.7C1068.7,4608.7,1055.8,4595.3,1058.3,4571.7z"></path></g><linearGradient id="SVGID_00000030453824366534984920000008185545200785077917_" gradientUnits="userSpaceOnUse" x1="1600.5284" y1="400.9059" x2="4329.7085" y2="-1923.6237" gradientTransform="matrix(1 0 0 -1 0 4586.1436)">	<stop offset="1.930000e-02" style="stop-color:#BD0685"></stop>	<stop offset="2.210000e-02" style="stop-color:#BC0685"></stop>	<stop offset="0.1463" style="stop-color:#8E0477"></stop>	<stop offset="0.2734" style="stop-color:#66036B"></stop>	<stop offset="0.4049" style="stop-color:#460261"></stop>	<stop offset="0.5399" style="stop-color:#2D015A"></stop>	<stop offset="0.6801" style="stop-color:#1B0054"></stop>	<stop offset="0.8287" style="stop-color:#100051"></stop>	<stop offset="1" style="stop-color:#0D0050"></stop></linearGradient><path style="fill:url(#SVGID_00000030453824366534984920000008185545200785077917_);" d="M3035.7,4118.1  c-710.8,28.9-2251.2,256.5-2933.4,1651.4c-0.6,1.1-0.9,2.3-1.4,3.5l6176.2-3.5C5874.8,4123.3,3746.6,4089.2,3035.7,4118.1z"></path></svg>