<svg xmlns="http://www.w3.org/2000/svg" xmlns:xlink="http://www.w3.org/1999/xlink" id="layer" x="0px" y="0px" viewBox="0 0 135 30" xml:space="preserve"><g>	<path fill="#6E6C6C" d="M50.11,0.82c0.72-0.21,1.51-0.21,2.32-0.08c0.87,0.14,1.66,0.37,2.38,0.87c0,0.66,0,1.3,0,2.03  c-0.43-0.37-0.95-0.66-1.45-0.87c-0.72-0.29-1.45-0.43-2.17-0.37c-0.37,0-0.72,0.08-1.01,0.29c-0.21,0.14-0.37,0.29-0.5,0.5  c-0.14,0.29-0.14,0.58-0.14,0.87c0,0.21,0.14,0.43,0.37,0.66c0.29,0.21,0.58,0.37,0.95,0.5c0.66,0.21,1.37,0.5,2.03,0.72  c0.58,0.21,1.16,0.5,1.59,0.95c0.43,0.37,0.72,0.95,0.87,1.51c0.14,0.58,0.14,1.24,0,1.8c-0.14,0.5-0.43,1.01-0.87,1.37  c-0.43,0.37-1.01,0.66-1.51,0.79c-0.79,0.21-1.59,0.21-2.38,0.14c-1.01-0.14-1.95-0.37-2.82-0.95c0-0.66,0-1.37,0-2.03  c1.01,0.79,2.24,1.3,3.47,1.3c0.5,0,1.08-0.08,1.59-0.29c0.29-0.14,0.5-0.37,0.66-0.66c0.15-0.29,0.14-0.66,0-1.01  c-0.08-0.29-0.37-0.58-0.66-0.72c-0.5-0.29-1.08-0.43-1.59-0.66c-0.66-0.21-1.37-0.43-1.95-0.79c-0.43-0.29-0.87-0.58-1.16-1.08  c-0.37-0.58-0.5-1.37-0.43-2.09c0.08-0.66,0.37-1.3,0.87-1.74C48.95,1.26,49.53,0.97,50.11,0.82L50.11,0.82z"></path>	<path fill="#6E6C6C" d="M95.21,1.32c0.79-0.5,1.74-0.66,2.6-0.66c1.16,0,2.32,0.29,3.25,0.95c0,0.66,0,1.3,0,2.03  c-0.43-0.29-0.87-0.58-1.3-0.79c-0.79-0.37-1.74-0.5-2.6-0.37c-0.5,0.08-1.01,0.29-1.24,0.72c-0.21,0.5-0.14,1.16,0.21,1.51  C96.51,5,96.86,5.14,97.3,5.29c0.66,0.21,1.3,0.5,1.95,0.72c0.58,0.21,1.16,0.58,1.59,1.01c0.43,0.43,0.66,0.95,0.72,1.51  c0.08,0.66,0.08,1.3-0.21,1.88c-0.21,0.5-0.58,0.95-1.01,1.24c-0.5,0.37-1.16,0.58-1.8,0.72c-0.87,0.14-1.8,0.08-2.67-0.08  c-0.72-0.14-1.45-0.43-2.03-0.87c0-0.66,0-1.37,0-2.03c0.79,0.66,1.66,1.08,2.67,1.24c0.43,0.08,0.87,0.08,1.3,0.08  s0.87-0.14,1.24-0.37c0.29-0.21,0.5-0.5,0.58-0.79c0.08-0.37,0-0.87-0.29-1.16c-0.21-0.29-0.58-0.43-0.87-0.58  c-0.5-0.21-1.08-0.43-1.66-0.58C96.3,7,95.72,6.84,95.29,6.55c-0.43-0.29-0.87-0.58-1.08-1.08c-0.29-0.43-0.43-0.95-0.43-1.45  c0-0.43,0-0.95,0.21-1.37C94.27,2.11,94.69,1.69,95.21,1.32L95.21,1.32z"></path>	<path fill="#6E6C6C" d="M107.56,0.97c0.5-0.21,1.08-0.29,1.66-0.29c1.16,0,2.38,0.29,3.4,0.87c0.08,0,0.08,0.08,0.08,0.08  c0,0.66,0,1.3,0,1.95c-0.43-0.37-0.95-0.66-1.51-0.87c-0.66-0.29-1.37-0.37-2.17-0.37c-0.37,0-0.72,0.08-1.08,0.29  c-0.21,0.14-0.43,0.37-0.5,0.58c-0.21,0.5-0.08,1.08,0.37,1.45c0.43,0.37,1.01,0.5,1.59,0.72c0.66,0.21,1.3,0.43,1.88,0.72  c0.58,0.29,1.08,0.66,1.45,1.16c0.37,0.58,0.58,1.24,0.58,1.88c0,0.58-0.14,1.24-0.5,1.66c-0.37,0.5-0.87,0.87-1.37,1.16  c-0.58,0.29-1.24,0.37-1.88,0.43c-0.72,0-1.45,0-2.17-0.21c-0.66-0.14-1.3-0.43-1.8-0.79c0-0.66,0-1.37,0-2.03  c1.01,0.79,2.24,1.3,3.54,1.3c0.58,0,1.16-0.08,1.59-0.29c0.29-0.14,0.5-0.37,0.58-0.66c0.14-0.37,0.14-0.72,0-1.01  c-0.14-0.29-0.37-0.58-0.66-0.72c-0.5-0.29-1.08-0.5-1.66-0.66c-0.66-0.21-1.3-0.43-1.95-0.79c-0.5-0.29-0.95-0.66-1.24-1.16  c-0.29-0.5-0.43-1.16-0.37-1.74c0-0.58,0.21-1.16,0.5-1.59C106.42,1.55,107,1.18,107.56,0.97L107.56,0.97z"></path>	<path fill="#6E6C6C" d="M67.74,0.68c2.6,2.46,5.21,4.99,7.8,7.45c0-2.46,0-4.84,0-7.3c0.66,0,1.24,0,1.88,0c0,3.83,0,7.74,0,11.57  c-1.74-1.74-3.54-3.4-5.28-5.13c-0.87-0.79-1.66-1.66-2.53-2.46c0,2.46,0,4.92,0,7.37c-0.66,0-1.24,0-1.88,0  C67.74,8.4,67.74,4.57,67.74,0.68L67.74,0.68z"></path>	<path fill="#6E6C6C" d="M21.7,0.89c1.01,0,2.03,0,2.96,0c0.72,0,1.37,0,2.09,0.08s1.37,0.37,1.88,0.79  c0.43,0.37,0.72,0.87,0.79,1.37c0.14,0.58,0.14,1.24-0.08,1.8c-0.21,0.66-0.66,1.16-1.3,1.45c0.14,0.08,0.29,0.08,0.37,0.14  c0.58,0.29,1.01,0.79,1.24,1.37c0.21,0.43,0.21,0.95,0.21,1.45c-0.08,0.66-0.21,1.24-0.66,1.74c-0.43,0.58-1.08,0.87-1.8,1.08  c-0.5,0.08-1.16,0.14-1.74,0.08c-1.3,0-2.67,0-3.97,0C21.7,8.48,21.7,4.65,21.7,0.89L21.7,0.89z M23.58,2.56c0,1.01,0,2.09,0,3.11  c0.79,0,1.51,0,2.32,0c0.5,0,1.01-0.14,1.37-0.43c0.29-0.21,0.43-0.58,0.43-0.95s-0.08-0.79-0.29-1.16  c-0.29-0.29-0.58-0.43-0.95-0.5c-0.43-0.08-0.79-0.08-1.24-0.08C24.72,2.56,24.16,2.56,23.58,2.56L23.58,2.56z M23.58,7.26  c0,1.08,0,2.24,0,3.33c0.79,0,1.59,0,2.46,0c0.43,0,0.95-0.08,1.3-0.37c0.37-0.21,0.58-0.58,0.66-0.95c0.08-0.43,0-0.87-0.21-1.24  c-0.14-0.29-0.5-0.5-0.79-0.66c-0.29-0.08-0.66-0.14-0.95-0.14C25.16,7.26,24.37,7.26,23.58,7.26L23.58,7.26z"></path>	<path fill="#6E6C6C" d="M34.05,0.89c0.66,0,1.3,0,1.95,0c0,1.95,0,3.91,0,5.86c0,0.72,0,1.37,0.14,2.09  c0.14,0.58,0.43,1.08,0.87,1.45s1.01,0.43,1.59,0.43s1.16-0.14,1.66-0.5c0.37-0.29,0.66-0.72,0.79-1.16  c0.14-0.5,0.14-1.08,0.14-1.66c0-2.17,0-4.34,0-6.5c0.66,0,1.3,0,1.95,0c0,2.24,0,4.55,0,6.79c0,0.95-0.14,1.88-0.58,2.75  c-0.37,0.72-1.01,1.3-1.8,1.66c-0.87,0.37-1.8,0.5-2.75,0.43c-0.66-0.08-1.3-0.21-1.88-0.5c-0.43-0.21-0.79-0.5-1.08-0.87  c-0.37-0.43-0.66-0.95-0.79-1.51c-0.21-0.66-0.29-1.24-0.21-1.88C34.05,5.38,34.05,3.14,34.05,0.89L34.05,0.89z"></path>	<path fill="#6E6C6C" d="M60.36,0.89c0.66,0,1.3,0,1.95,0c0,3.83,0,7.59,0,11.42c-0.66,0-1.3,0-1.95,0  C60.36,8.48,60.36,4.65,60.36,0.89L60.36,0.89z"></path>	<path fill="#6E6C6C" d="M82.56,0.89c2.32,0,4.63,0,6.87,0c0,0.58,0,1.16,0,1.74c-1.66,0-3.33,0-4.99,0c0,0.95,0,1.8,0,2.75  c1.51,0,2.96,0,4.49,0c0,0.58,0,1.16,0,1.66c-1.51,0-2.96,0-4.49,0c0,1.16,0,2.38,0,3.54c1.66,0,3.33,0,4.99,0  c0,0.58,0,1.16,0,1.74c-2.32,0-4.63,0-6.87,0c0-3.11,0-6.15,0-9.25C82.56,2.34,82.56,1.61,82.56,0.89L82.56,0.89z"></path>	<path fill="#6E6C6C" d="M36.73,18.02c2.6,2.46,5.21,4.92,7.74,7.37c0-2.38,0-4.78,0-7.16c0.66,0,1.24,0,1.88,0  c0,3.83,0,7.59,0,11.42c-2.6-2.46-5.21-4.99-7.74-7.45c0,2.46,0,4.84,0,7.3c-0.66,0-1.24,0-1.88,0  C36.73,25.62,36.73,21.79,36.73,18.02L36.73,18.02z"></path>	<path fill="#6E6C6C" d="M52.91,18.39c0.72-0.37,1.51-0.43,2.32-0.43c1.08,0.08,2.17,0.37,3.04,0.95c0,0.66,0,1.3,0,1.95  c-0.43-0.37-0.95-0.66-1.45-0.87c-0.72-0.29-1.45-0.43-2.24-0.37c-0.37,0-0.72,0.14-1.01,0.29c-0.21,0.14-0.43,0.37-0.5,0.58  c-0.14,0.43-0.08,0.95,0.29,1.3c0.29,0.29,0.58,0.43,0.95,0.5c0.66,0.21,1.37,0.5,2.03,0.72c0.5,0.21,1.08,0.43,1.51,0.79  c0.43,0.37,0.72,0.87,0.87,1.37c0.14,0.58,0.14,1.16,0.08,1.74c-0.14,0.58-0.43,1.01-0.79,1.45c-0.43,0.43-0.95,0.66-1.51,0.87  c-0.72,0.21-1.45,0.21-2.17,0.21c-0.72-0.08-1.51-0.21-2.17-0.5c-0.29-0.14-0.58-0.29-0.87-0.43c0-0.66,0-1.3,0-2.03  c1.01,0.79,2.24,1.3,3.47,1.3c0.58,0,1.08-0.08,1.59-0.29c0.29-0.14,0.5-0.43,0.58-0.72c0.08-0.29,0.08-0.66,0-0.95  c-0.14-0.29-0.37-0.58-0.66-0.72c-0.5-0.29-1.01-0.43-1.59-0.66c-0.58-0.21-1.24-0.43-1.8-0.72c-0.5-0.29-1.01-0.66-1.3-1.16  c-0.29-0.5-0.43-1.08-0.43-1.66c0-0.58,0.14-1.08,0.43-1.59C51.98,18.97,52.41,18.68,52.91,18.39L52.91,18.39z"></path>	<path fill="#6E6C6C" d="M29.35,18.17c0.66,0,1.3,0,1.95,0c0,3.76,0,7.45,0,11.2c-0.66,0-1.3,0-1.95,0  C29.35,25.68,29.35,21.93,29.35,18.17L29.35,18.17z"></path>	<path fill="#6E6C6C" d="M63.83,18.17c0.66,0,1.3,0,1.95,0c0,3.76,0,7.45,0,11.2c-0.66,0-1.3,0-1.95,0  C63.83,25.68,63.83,21.93,63.83,18.17L63.83,18.17z"></path>	<path fill="#6E6C6C" d="M71.35,18.17c1.51,0,2.96,0,4.49,0c1.16,0,2.32,0.29,3.25,1.01c0.79,0.58,1.37,1.37,1.74,2.32  c0.29,0.79,0.37,1.59,0.37,2.38c0,1.16-0.29,2.32-0.95,3.33c-0.5,0.79-1.3,1.45-2.24,1.8c-0.72,0.29-1.45,0.43-2.24,0.43  c-1.51,0-2.96,0-4.49,0C71.35,25.68,71.35,21.93,71.35,18.17L71.35,18.17z M73.31,19.9c0,2.6,0,5.21,0,7.8c0.58,0,1.24,0,1.8,0  c0.37,0,0.72,0,1.08,0c0.72-0.08,1.37-0.37,1.95-0.87c0.43-0.43,0.79-1.01,0.95-1.59c0.14-0.58,0.21-1.24,0.14-1.8  c-0.08-0.58-0.14-1.08-0.37-1.59c-0.21-0.5-0.58-0.95-1.01-1.24c-0.5-0.37-1.08-0.58-1.74-0.58c-0.37-0.08-0.72,0-1.08,0  C74.45,19.9,73.89,19.9,73.31,19.9L73.31,19.9z"></path>	<path fill="#6E6C6C" d="M85.23,18.17c2.32,0,4.55,0,6.87,0c0,0.58,0,1.16,0,1.66c-1.66,0-3.33,0-4.99,0c0,0.87,0,1.8,0,2.67  c1.51,0,2.96,0,4.49,0c0,0.58,0,1.08,0,1.66c-1.51,0-2.96,0-4.49,0c0,1.16,0,2.32,0,3.47c1.66,0,3.33,0,4.99,0  c0,0.58,0,1.16,0,1.74c-2.32,0-4.55,0-6.87,0C85.23,25.68,85.23,21.93,85.23,18.17L85.23,18.17z"></path>	<path fill="#6E6C6C" d="M97.81,18.17c1.37,0,2.82,0,4.2,0c0.72,0,1.37,0.14,2.03,0.43c0.5,0.21,0.95,0.58,1.24,1.08  c0.37,0.58,0.5,1.24,0.5,1.88c0,0.66-0.08,1.37-0.43,1.95c-0.29,0.43-0.66,0.79-1.08,1.01c-0.37,0.14-0.72,0.21-1.08,0.29  c1.37,1.51,2.67,3.11,4.05,4.63c-0.72,0-1.45,0-2.17,0c-1.3-1.51-2.6-3.04-3.91-4.55c-0.43,0-0.87,0-1.37,0c0,1.51,0,3.04,0,4.55  c-0.66,0-1.3,0-1.88,0C97.81,25.68,97.81,21.93,97.81,18.17L97.81,18.17z M99.69,19.84c0,1.16,0,2.32,0,3.4c0.72,0,1.45,0,2.24,0  c0.5,0,1.01-0.14,1.37-0.5c0.29-0.21,0.43-0.58,0.43-0.87c0.08-0.43,0-0.87-0.21-1.3c-0.21-0.37-0.58-0.58-1.01-0.66  c-0.43-0.14-0.79-0.08-1.24-0.08C100.77,19.84,100.27,19.84,99.69,19.84L99.69,19.84z"></path></g></svg>