<svg xmlns="http://www.w3.org/2000/svg" xmlns:xlink="http://www.w3.org/1999/xlink" id="Layer_1" x="0px" y="0px" viewBox="0 0 180 40" xml:space="preserve"><g>	<path fill="#FFFFFF" d="M35.55,11.32c-0.62-1.55-2.13-3.23-4.96-2.99c-3.6,0.39-4.72,3.84-4.18,5.9c-1.44-0.97-3.87-1.4-6,0.42  c-2.75,2.76-1.28,6.48,0.23,7.37c-1.67-0.15-4.3,0.97-4.88,3.9c-0.62,3.65,2.17,5.78,4.88,5.78h30.07c3.14,0,4.88-2.71,4.68-5.27  c-0.31-3.34-3.36-4.62-5.03-4.35c1.39-0.78,3.25-4.43,0.42-7.3c-2.25-2.14-5.11-1.36-6.11-0.43c0.54-1.78-0.34-5.47-3.99-6.06  c-0.24-0.03-0.48-0.04-0.72-0.04C37.19,8.28,35.94,10.31,35.55,11.32"></path>	<path fill="#6E6A6B" d="M20.91,15.24c-1.59,1.44-2.17,4.69,0.7,6.6l11.42,7.83l-5.54-12.69C26.33,13.99,23.16,13.34,20.91,15.24"></path>	<path fill="#6E6A6B" d="M30.75,9.07c-1.86,0.04-4.64,2.25-3.4,5.62l5.73,13.51L35.09,14c0.47-3.53-2.21-5.16-4.33-4.92"></path>	<path fill="#6E6A6B" d="M35.97,13.45h1.08c0,0,0.58,0,0.66,0.27c-0.43,0.34-1.59,0.39-1.43,2.25L38.1,28.2l5.69-13.54  c1.16-3.02-1.28-5.55-3.45-5.63l-0.31-0.01C38.08,9.02,35.86,10.43,35.97,13.45"></path>	<path fill="#6E6A6B" d="M43.56,17.1l-5.38,12.53l11.42-7.88c2.63-1.87,2.21-4.85,0.73-6.33c-0.62-0.69-1.75-1.23-2.95-1.23  C45.96,14.2,44.44,14.96,43.56,17.1"></path>	<path fill="#6E6A6B" d="M48.32,23.54L37.6,31.03h13.2c2.72,0,4.45-2.8,3.68-5.35c-0.51-1.61-2.05-2.88-3.83-2.89  C49.9,22.8,49.1,23.03,48.32,23.54"></path>	<path fill="#6E6A6B" d="M20.61,31.03h13.01l-10.72-7.49c-2.48-1.59-5.26-0.66-6.27,1.98C15.77,28.55,17.9,31.04,20.61,31.03"></path></g><path fill="#6D696A" d="M58.71,21.64c0,3.4,2.78,9.6,13.41,9.6c9.79,0,12.89-4.49,12.89-6.56h-7.58c0,0-0.36,2.72-4.64,2.72 s-5.44-3.57-5.44-5.64s1.16-5.44,5.44-5.44s4.64,2.37,4.64,2.37h7.58c0-2.06-2.27-6.49-12.89-6.49S58.71,18.8,58.71,21.64  M138.24,21.63c0,3.4,2.79,9.6,13.41,9.6c9.79,0,12.89-4.49,12.89-6.56h-7.58c0,0-0.36,2.72-4.64,2.72c-4.28,0-5.44-3.57-5.44-5.64 s1.16-5.44,5.44-5.44s4.64,2.37,4.64,2.37h7.58c0-2.06-2.27-6.49-12.89-6.49C141.02,12.2,138.24,18.8,138.24,21.63 M105.73,12.54 v11.52l-8.82-11.52h-9.93v18.25h6.79V19.13l8.67,11.65h10.08V12.54H105.73 M127.52,26.41v0.02h-5.65v-3.35h5.67v-0.01 c1.21,0,2.19,0.74,2.19,1.66c0,0.92-0.98,1.66-2.19,1.66 M121.93,16.03h5.47v0.01c0.93,0,1.68,0.61,1.68,1.36s-0.75,1.36-1.68,1.36 v0.01h-5.48L121.93,16.03z M133.11,21.03c1.24,0,3.83-1.44,3.83-4.22c0-3.97-7.39-4.32-8.52-4.32h-13.61v18.25h13.61 c6.55,0,9.18-2.07,9.18-5.52s-4.47-4.18-4.47-4.18L133.11,21.03z"></path></svg>