<svg xmlns="http://www.w3.org/2000/svg" xmlns:xlink="http://www.w3.org/1999/xlink" id="Layer_1" x="0px" y="0px" viewBox="0 0 135 30" xml:space="preserve"><path fill="#6F6D6D" d="M112.6,15.36l-0.84,0.23c-0.8-2.72-2.14-3.89-4.03-3.89c-1.33,0-2.27,0.87-2.27,2.27 c0,1.33,1.09,2.04,4.06,3.24c2.74,1.01,3.87,2.24,3.87,4.39c0,3.28-2.57,5.33-6.8,5.33c-2.03,0-4.33-0.45-5.63-0.97l-0.16-4.55 l0.8-0.16c1.2,3.11,2.74,4.29,4.73,4.29c1.73,0,2.64-1.2,2.64-2.43c0-1.23-0.7-1.95-3.41-2.92c-2.57-0.84-4.33-1.95-4.33-4.68 c0-2.69,2.37-4.97,6.39-4.97c1.9,0,3.63,0.32,4.77,0.84L112.6,15.36z M95.19,16.79c0.1-2.14-0.34-5.23-2.1-5.23 c-1.81,0-2.8,2.89-2.83,5.36L95.19,16.79z M93.53,10.52c4.43,0,6.57,3.24,6.6,7.5h-9.98c-0.03,3.77,1.97,6.63,5.71,6.63 c1.63,0,2.57-0.45,3.57-1.17L99.9,24c-1.09,1.49-3.36,2.92-6.39,2.92c-4.86,0-8.24-3.34-8.24-8.05 C85.26,14.6,88.03,10.52,93.53,10.52 M79.15,18.41c-0.1-3.36-1.33-6.04-3.7-6.04c-0.56,0-0.99,0.1-1.66,0.32l0.19,12.96 c0.24,0.1,0.8,0.16,1.2,0.16C77.49,25.81,79.15,22.56,79.15,18.41 M84.09,18.16c0,5.33-3.36,8.77-9.07,8.77 c-2.03,0-4.14-0.32-5.97-0.75c0.16-2.14,0.16-15.39,0-17.89c-0.16-1.3-0.53-1.91-1.54-2.04l-0.67-0.06V5.58l7.04-1.3 c-0.03,1.09-0.1,4-0.1,7.4c1.23-0.62,2.37-0.97,3.9-0.97C81.35,10.72,84.08,13.83,84.09,18.16 M66.17,15.26 c-2.17-1.43-4.51-0.81-4.97,0c-0.21,2.5-0.16,6.33,0.03,8.31c0.1,1.3,0.46,1.85,1.47,1.95l1.33,0.13v0.84h-9.94v-0.84l0.77-0.13 c0.96-0.1,1.3-0.65,1.36-1.95c0.24-2.11,0.3-6.53,0-8.96c-0.06-1.39-0.4-1.91-1.36-2.04l-0.77-0.1v-0.58l7.1-1.36l-0.1,3.63 c1.66-3.76,4.97-4.22,6.77-3.21L66.17,15.26z M42.87,18.74c0,3.97,1.07,7.21,3.23,7.21c2.33,0,3.01-3.18,3.01-7.21 s-1.04-7.18-3.23-7.18C43.52,11.56,42.87,14.64,42.87,18.74 M54.13,18.68c0,4.55-3.01,8.24-8.37,8.24c-5.28,0-7.93-3.51-7.93-8.12 c0-4.52,3.01-8.28,8.37-8.28C51.47,10.52,54.13,14.05,54.13,18.68 M40.32,10.84l-1.09,0.32c-0.93-3.19-2.57-5-5.4-5h-3.7 c-0.21,2.12-0.3,5.39-0.21,8.93l2.46-0.13c1.66,0,2.37-1.2,2.77-2.94h0.93v7.37h-0.95c-0.4-1.78-1.09-2.99-2.77-3.09l-2.46-0.03 c0,2.63,0.03,4.88,0.21,6.24c0.16,1.95,0.7,2.83,2.13,3.02l1.34,0.13v0.84H21.52v-0.84l1.01-0.13c1.39-0.19,1.97-1.07,2.13-3.02 c0.27-3.18,0.34-9.97,0-13.74c-0.16-2.02-0.73-2.82-2.13-2.98l-1.01-0.16V4.74H40.3L40.32,10.84z"></path></svg>