<svg xmlns="http://www.w3.org/2000/svg" xmlns:xlink="http://www.w3.org/1999/xlink" id="Layer_1" x="0px" y="0px" viewBox="0 0 180 40" xml:space="preserve"><path fill="#626262" d="M12.28,22.64c0.18-1.04,0.02-2.09,0.13-3.13c0.26-2.5,0.99-4.81,2.61-6.79c1.78-2.17,4.14-3.31,6.87-3.78 c2.01-0.34,4.03-0.27,6.05-0.03c1.35,0.16,2.7,0.08,4.05,0.07c0.52,0,0.69,0.12,0.69,0.67c-0.03,2.15-0.03,4.3,0,6.45 c0.01,0.52-0.16,0.64-0.65,0.62c-0.88-0.04-1.75-0.02-2.63,0c-0.33,0.01-0.47-0.09-0.52-0.44c-0.11-0.93-0.28-1.86-0.4-2.79 c-0.05-0.42-0.21-0.68-0.66-0.78c-1.86-0.43-3.73-0.68-5.57,0.05c-1.8,0.71-2.9,2.12-3.43,3.91c-0.98,3.3-0.94,6.63,0.22,9.89 c0.91,2.54,2.72,3.7,5.43,3.67c0.88-0.01,1.75-0.05,2.61-0.29c0.29-0.08,0.4-0.21,0.4-0.5c-0.01-1.39-0.01-2.78,0-4.16 c0-0.36-0.14-0.47-0.48-0.45c-0.49,0.02-0.99-0.01-1.48,0.01c-0.34,0.02-0.49-0.08-0.48-0.45c0.02-0.69,0.02-1.39,0-2.08 c-0.01-0.33,0.07-0.48,0.45-0.48c2.97,0.01,5.94,0.01,8.91,0c0.31,0,0.44,0.09,0.43,0.42c-0.02,0.72-0.02,1.43,0,2.15 c0.01,0.38-0.16,0.43-0.48,0.44c-1.04,0.03-1.41,0.42-1.41,1.44c0,2.17-0.02,4.34,0.01,6.51c0.01,0.48-0.09,0.7-0.62,0.65 c-0.51-0.05-1.03-0.02-1.55-0.01c-0.43,0.01-0.83,0.02-1.09-0.44c-0.15-0.26-0.48-0.37-0.78-0.23c-1.22,0.57-2.5,0.86-3.83,0.95 c-0.03,0-0.05,0.06-0.08,0.1c-0.72,0-1.44,0-2.16,0c-0.1-0.23-0.31-0.13-0.47-0.15c-5.2-0.53-8.66-3.7-9.68-8.81 c-0.13-0.64-0.07-1.32-0.38-1.92C12.28,22.82,12.28,22.73,12.28,22.64z"></path><path fill="#626262" d="M45.1,33.79c-0.51-0.28-1.08-0.17-1.62-0.24c-4.55-0.59-7.35-3.6-7.59-8.17c-0.1-1.95,0.06-3.85,0.89-5.63 c1.45-3.1,4.02-4.58,7.35-4.89c1.51-0.14,3.01-0.04,4.47,0.41c3.04,0.94,4.39,3.21,4.86,6.16c0.16,1.02,0.13,2.05,0.15,3.08 c0.01,0.54-0.16,0.71-0.73,0.71c-3.67-0.03-7.33,0-11-0.03c-0.62-0.01-0.79,0.16-0.68,0.75c0.23,1.34,0.53,2.65,1.65,3.57 c1.83,1.51,5.04,1.32,6.63-0.44c0.4-0.43,0.78-0.59,1.33-0.56c0.56,0.03,1.13,0.03,1.69,0c0.36-0.02,0.47,0.11,0.46,0.46 c-0.02,0.81-0.03,1.61,0,2.42c0.02,0.41-0.15,0.6-0.48,0.78c-1.88,1.01-3.91,1.41-6.03,1.49c-0.23,0.01-0.5-0.13-0.68,0.13 C45.55,33.79,45.32,33.79,45.1,33.79z M44.83,22.3c0.74,0,1.48,0,2.22,0c1.51,0,1.48,0,1.2-1.51c-0.48-2.63-2.15-3.31-4.41-2.67 c-1.36,0.38-2.61,2.4-2.55,3.86c0.01,0.36,0.23,0.32,0.45,0.32C42.76,22.3,43.79,22.3,44.83,22.3z"></path><path fill="#626262" d="M63.73,33.79c-0.53-0.28-1.12-0.17-1.68-0.24c-4.4-0.57-7.16-3.45-7.52-7.87c-0.14-1.71-0.05-3.4,0.51-5.03 c1.16-3.39,4.05-5.56,7.68-5.79c1.17-0.07,2.34-0.06,3.49,0.17c3.16,0.62,5.12,2.56,5.74,5.73c0.25,1.28,0.32,2.57,0.27,3.87 c-0.02,0.46-0.18,0.6-0.64,0.59c-3.69-0.02-7.38,0-11.07-0.02c-0.6,0-0.81,0.14-0.7,0.74c0.15,0.79,0.29,1.58,0.66,2.31 c0.54,1.05,1.35,1.8,2.52,2.05c2.04,0.43,3.95,0.3,5.37-1.51c0.08-0.1,0.15-0.25,0.3-0.25c0.9-0.01,1.8-0.01,2.7,0 c0.23,0,0.19,0.21,0.19,0.36c0,0.9-0.01,1.79,0.01,2.69c0.01,0.36-0.24,0.45-0.47,0.57c-1.87,1.04-3.91,1.42-6.02,1.5 c-0.22,0.01-0.5-0.14-0.68,0.13C64.18,33.79,63.96,33.79,63.73,33.79z M63.37,22.32c0.54,0,1.08,0.02,1.62-0.01 c0.66-0.04,1.63,0.31,1.91-0.15c0.38-0.62-0.04-1.51-0.27-2.25c-0.08-0.25-0.2-0.5-0.34-0.73c-0.33-0.57-0.8-0.94-1.44-1.14 c-1.63-0.51-3.34,0.13-4.2,1.58c-0.4,0.68-0.59,1.44-0.75,2.21c-0.09,0.42,0.05,0.5,0.43,0.49C61.35,22.3,62.36,22.32,63.37,22.32z"></path><path fill="#626262" d="M159.21,33.79c-0.39-0.27-0.85-0.12-1.28-0.18c-5.31-0.73-8-3.76-8.03-9.14c-0.02-3.16,0.86-5.98,3.54-7.94 c2.25-1.64,4.83-1.92,7.51-1.6c2.03,0.24,3.82,0.97,5.08,2.67c0.96,1.3,1.34,2.8,1.54,4.37c0.02,0.14-0.08,0.33,0.14,0.4 c0,0.04,0,0.09,0,0.13c-0.25,0.76-0.24,1.52,0,2.28c0,0.13,0,0.27,0,0.4c-3.85,0.01-7.69,0.02-11.54,0.02c-1.01,0-1.03,0-0.87,1 c0.29,1.84,0.97,3.49,2.95,4.03c2.05,0.56,4.03,0.44,5.51-1.4c0.16-0.2,0.34-0.32,0.62-0.32c0.74,0.02,1.49,0.02,2.23,0 c0.33-0.01,0.43,0.11,0.42,0.43c-0.02,0.81-0.03,1.61,0,2.42c0.01,0.38-0.11,0.6-0.45,0.79c-1.41,0.75-2.9,1.16-4.47,1.39 c-0.78,0.11-1.59-0.03-2.35,0.25C159.57,33.79,159.39,33.79,159.21,33.79z M158.87,22.31c0.72,0,1.44,0,2.15,0 c1.56,0,1.56,0,1.28-1.53c-0.31-1.69-1.14-2.66-2.43-2.83c-1.86-0.25-3.18,0.43-3.97,2.05c-0.28,0.57-0.4,1.18-0.55,1.78 c-0.1,0.41-0.03,0.56,0.43,0.55C156.81,22.29,157.84,22.31,158.87,22.31z"></path><path fill="#626262" d="M167.72,24.79c-0.24-0.76-0.25-1.52,0-2.28C167.72,23.27,167.72,24.03,167.72,24.79z"></path><path fill="#626262" d="M109.16,18.53c-0.47,1.86-0.94,3.68-1.4,5.51c-0.74,2.92-1.5,5.84-2.22,8.77c-0.12,0.5-0.33,0.62-0.82,0.61 c-1.6-0.03-3.2-0.03-4.79,0c-0.44,0.01-0.61-0.12-0.72-0.56c-1.59-6.44-3.2-12.88-4.8-19.31c-0.22-0.88-0.54-1.58-1.62-1.52 c-0.27,0.02-0.27-0.16-0.27-0.35c0-0.76,0.02-1.52-0.01-2.28c-0.02-0.49,0.32-0.39,0.59-0.39c2.43,0,4.86,0,7.29,0 c0.56,0,1.13,0.02,1.69-0.01c0.4-0.02,0.5,0.15,0.49,0.51c-0.02,0.69-0.02,1.39,0,2.08c0.01,0.36-0.12,0.46-0.46,0.45 c-0.8-0.02-1.61-0.01-2.49-0.01c1.34,4.99,2.32,9.98,3.49,15.13c0.18-0.68,0.33-1.19,0.46-1.7c1.34-5.28,2.68-10.57,3.99-15.86 c0.13-0.51,0.34-0.63,0.82-0.61c0.99,0.03,1.98,0.03,2.97,0c0.45-0.01,0.65,0.09,0.77,0.58c1.4,5.68,2.84,11.36,4.27,17.03 c0.03,0.1,0.06,0.2,0.21,0.32c0.28-1.12,0.57-2.25,0.85-3.37c0.65-2.65,1.3-5.29,1.93-7.94c0.09-0.36,0.22-0.5,0.62-0.5 c4.14,0.01,8.28-0.01,12.42-0.01c0.8,0,1.02,0.2,1.13,1.01c0.05,0.4,0.07,0.8,0.07,1.2c0.01,3.96,0,7.92,0,11.88 c0,1.04,0.26,1.3,1.32,1.3c0.9,0,0.9,0,0.9,0.94c0,0.51-0.02,1.03,0.01,1.54c0.02,0.37-0.12,0.44-0.46,0.44 c-2.9-0.01-5.81-0.01-8.71,0c-0.37,0-0.52-0.09-0.5-0.48c0.03-0.67,0.02-1.34,0-2.01c-0.01-0.32,0.11-0.47,0.43-0.42 c1.62,0.23,1.82-0.37,1.8-1.92c-0.04-2.98-0.01-5.95-0.01-8.93c0-1.15-0.28-1.44-1.41-1.44c-0.88,0-1.76,0-2.63,0 c-0.96,0-1.37,0.31-1.62,1.26c-1.17,4.43-2.34,8.85-3.48,13.29c-0.13,0.49-0.3,0.68-0.84,0.67c-1.55-0.04-3.11-0.04-4.66,0 c-0.56,0.02-0.76-0.15-0.89-0.68c-1.12-4.53-2.26-9.06-3.41-13.58C109.41,18.96,109.45,18.7,109.16,18.53z"></path><path fill="#626262" d="M80.23,24.05c1.63-1.58,3.14-3.03,4.63-4.48c0.27-0.26,0.44-0.59,0.32-0.97c-0.13-0.4-0.49-0.42-0.84-0.39 c-0.33,0.03-0.49-0.07-0.48-0.44c0.03-0.74,0.02-1.48,0-2.22c-0.01-0.35,0.1-0.47,0.46-0.47c2.52,0.01,5.04,0.01,7.56,0 c0.33,0,0.43,0.12,0.42,0.43c-0.01,0.76-0.02,1.52,0,2.28c0.01,0.34-0.14,0.44-0.45,0.4c-1.02-0.14-1.76,0.35-2.45,1.02 c-1.04,1.02-2.09,2.04-3.15,3.04c-0.3,0.28-0.34,0.48-0.09,0.83c1.52,2.13,3.02,4.29,4.52,6.43c0.35,0.5,0.73,0.98,1.44,0.97 c0.29-0.01,0.3,0.21,0.3,0.42c0,0.69-0.01,1.39,0,2.08c0.01,0.33-0.13,0.42-0.44,0.42c-1.44-0.01-2.88-0.02-4.32,0.01 c-0.42,0.01-0.53-0.28-0.7-0.52c-1.45-2.1-2.9-4.2-4.31-6.33c-0.31-0.47-0.51-0.44-0.83-0.07c-0.1,0.12-0.21,0.25-0.34,0.33 c-1.19,0.75-1.45,1.86-1.3,3.17c0.04,0.37,0.12,0.49,0.51,0.51c1.36,0.04,1.36,0.06,1.36,1.44c0,1.47,0,1.47-1.46,1.47 c-2.36,0-4.73-0.01-7.09,0.01c-0.48,0-0.63-0.13-0.6-0.6c0.04-0.58,0.04-1.17,0-1.74c-0.04-0.49,0.17-0.59,0.62-0.59 c1.32,0,1.53-0.22,1.53-1.51c0-5.15,0-10.3,0-15.44c0-1.2-0.3-1.53-1.51-1.48c-0.6,0.02-0.79-0.14-0.74-0.74 c0.06-0.62,0.02-1.25,0.01-1.88c0.02-0.32,0.13-0.45,0.46-0.44c2,0.01,4.01,0,6.01,0.01c0.6,0,0.9,0.33,0.95,0.91 c0.01,0.2,0.01,0.4,0.01,0.6c0,4.23,0,8.46,0,12.69C80.23,23.42,80.23,23.64,80.23,24.05z"></path><path fill="#626262" d="M144.01,17.65c0.5-0.58,0.98-1.1,1.55-1.53c1.2-0.91,2.53-1.3,4.04-1.15c0.46,0.05,0.67,0.19,0.65,0.7 c-0.04,0.87-0.04,1.75,0,2.62c0.02,0.5-0.11,0.65-0.63,0.64c-1.65-0.05-3.27,0.13-4.83,0.73c-0.55,0.21-0.79,0.46-0.78,1.11 c0.04,3.02,0.03,6.04,0.01,9.06c-0.01,0.57,0.17,0.75,0.72,0.69c0.42-0.04,0.86,0.02,1.28-0.02c0.5-0.05,0.63,0.16,0.59,0.61 c-0.07,0.75,0.32,1.76-0.15,2.19c-0.41,0.37-1.41,0.12-2.15,0.12c-2.34,0.01-4.68-0.01-7.02,0.01c-0.47,0-0.63-0.12-0.6-0.59 c0.04-0.62,0.03-1.25,0-1.88c-0.01-0.36,0.12-0.48,0.47-0.46c0.22,0.02,0.45,0.01,0.67,0c0.62-0.02,0.99-0.36,0.99-0.96 c0.02-3.42,0.02-6.85,0-10.27c0-0.67-0.44-1.04-1.12-1.06c-1.14-0.02-1.16-0.02-1.14-1.16c0.02-0.64-0.3-1.49,0.14-1.85 c0.38-0.31,1.21-0.09,1.83-0.09c1.35-0.01,2.7,0.03,4.05-0.01c0.7-0.02,1.06,0.3,1.19,0.92C143.87,16.52,143.93,17.05,144.01,17.65z "></path><path fill="#626262" d="M130.98,5.27c2.07,0.07,3.64,0.99,4.57,2.81c0.92,1.8,0.74,3.59-0.41,5.26c-0.18,0.26-0.38,0.51-0.76,0.45 c-0.48-0.08-0.6-0.54-0.23-1.05c0.79-1.09,1.03-2.28,0.61-3.56c-0.54-1.62-1.71-2.57-3.4-2.75c-1.63-0.18-2.96,0.48-3.83,1.88 c-0.89,1.43-0.8,2.89,0.11,4.3c0.13,0.2,0.35,0.37,0.34,0.64c-0.01,0.24-0.12,0.44-0.36,0.51c-0.35,0.11-0.6-0.04-0.81-0.32 c-1.14-1.58-1.39-3.3-0.61-5.07C127.1,6.33,128.75,5.33,130.98,5.27z"></path><path fill="#626262" d="M133.43,10.43c-0.02,1.32-1.15,2.39-2.5,2.37c-1.39-0.01-2.53-1.13-2.5-2.46c0.03-1.35,1.19-2.44,2.55-2.4 C132.39,7.98,133.45,9.07,133.43,10.43z"></path></svg>