<svg xmlns="http://www.w3.org/2000/svg" xmlns:xlink="http://www.w3.org/1999/xlink" id="Layer_1" x="0px" y="0px" viewBox="0 0 180 40" xml:space="preserve"><g>	<rect x="99.14" y="3.55" fill="#787878" width="1.28" height="35.96"></rect>	<g>		<path fill="#787878" d="M124.18,29.84v-7.96c0-1.69-0.63-3.03-2.54-3.03c-1.62,0-3.22,1.39-3.22,4.37v6.62h-1.48v-7.96   c0-1.69-0.63-3.03-2.54-3.03c-1.62,0-3.22,1.39-3.22,4.37v6.62h-1.48v-9.16c0-0.92,0-1.86-0.09-2.82h1.43v2.02l0.05,0.02   c0.47-0.82,1.17-2.33,3.73-2.33c1.06,0,2.8,0.45,3.17,2.54h0.05c0.54-1.41,1.95-2.54,3.83-2.54c2.42,0,3.78,1.69,3.78,4.02v8.24   H124.18z"></path>		<path fill="#787878" d="M133.95,17.58c3.88,0,5.59,3.01,5.59,6.27c0,3.26-1.71,6.27-5.59,6.27s-5.59-3.01-5.59-6.27   C128.36,20.59,130.07,17.58,133.95,17.58z M133.95,28.85c2.58,0,3.97-2.23,3.97-5s-1.39-5-3.97-5c-2.58,0-3.97,2.23-3.97,5   S131.36,28.85,133.95,28.85z"></path>		<path fill="#787878" d="M142.33,20.68c0-0.92,0-1.86-0.09-2.82h1.43V20h0.05c0.49-1.08,1.39-2.42,3.88-2.42   c2.96,0,4.09,1.97,4.09,4.6v7.66h-1.48v-7.28c0-2.25-0.8-3.71-2.84-3.71c-2.7,0-3.55,2.37-3.55,4.37v6.62h-1.48V20.68z"></path>		<path fill="#787878" d="M163.43,29.46c-1.03,0.42-2.37,0.66-3.48,0.66c-3.97,0-5.45-2.68-5.45-6.27c0-3.66,2.02-6.27,5.05-6.27   c3.38,0,4.77,2.72,4.77,5.94v0.75h-8.2c0,2.54,1.36,4.58,3.95,4.58c1.08,0,2.65-0.45,3.36-0.89V29.46z M162.7,23   c0-2.09-0.85-4.16-3.05-4.16c-2.18,0-3.52,2.18-3.52,4.16H162.7z"></path>		<path fill="#787878" d="M170.47,27.84h0.02l3.45-9.98h1.55l-4.79,13.76c-0.56,1.64-1.41,3.29-3.08,3.29c-0.54,0-1.1-0.07-1.6-0.19   l0.14-1.27c0.28,0.09,0.56,0.19,1.1,0.19c1.27,0,1.69-1.06,2.16-2.61l0.31-1.06l-4.25-12.12h1.62L170.47,27.84z"></path>	</g>	<g>		<path id="path3011" fill="#787878" d="M8.41,37.43c-2.11,0-3.91-1.33-3.91-4.33c0-4.64,3.99-8.16,5.8-9.16c0,0,2.53,1.46,5.16,2.4   c-5.22-3.3-8.56-9.33-8.56-16.01c0-6.25,3.3-9.06,6.27-9.06c2.39,0,8.07,2.63,8.07,12.74C21.25,24.89,15.57,37.43,8.41,37.43   L8.41,37.43z"></path>		<g id="flowRoot3013" transform="matrix(9.2157808,0,0,9.2157808,-2680.7304,-5001.9425)">			<path id="path3028" fill="#787878" d="M297.44,546.04h-0.27v-0.96c0-0.19-0.03-0.32-0.09-0.4c-0.06-0.08-0.15-0.12-0.29-0.12    c-0.11,0-0.21,0.05-0.29,0.16s-0.12,0.23-0.12,0.38v0.96h-0.27v-0.99c0-0.33-0.13-0.49-0.38-0.49c-0.12,0-0.21,0.05-0.29,0.15    c-0.08,0.1-0.11,0.23-0.11,0.39v0.96h-0.27v-1.68h0.27v0.27h0.01c0.12-0.2,0.29-0.3,0.52-0.3c0.11,0,0.21,0.03,0.3,0.1    c0.09,0.06,0.14,0.15,0.18,0.25c0.12-0.23,0.31-0.35,0.56-0.35c0.37,0,0.55,0.23,0.55,0.68V546.04z"></path>			<path id="path3032" fill="#787878" d="M300.46,546.04h-0.27v-0.96c0-0.36-0.13-0.53-0.39-0.53c-0.13,0-0.25,0.05-0.33,0.15    c-0.09,0.1-0.13,0.23-0.13,0.38v0.96h-0.27v-1.68h0.27v0.28h0.01c0.13-0.21,0.31-0.32,0.55-0.32c0.18,0,0.32,0.06,0.42,0.18    c0.1,0.12,0.15,0.29,0.15,0.51V546.04z"></path>			<path id="path3034" fill="#787878" d="M297.73,545.68v0.29c0,0,0.14,0.1,0.42,0.1c0.42,0,0.61-0.24,0.61-0.49    c0-0.56-0.75-0.42-0.75-0.79c0-0.14,0.11-0.24,0.3-0.24c0.22,0,0.38,0.12,0.38,0.12v-0.27c0,0-0.15-0.08-0.36-0.08    c-0.36,0-0.59,0.23-0.59,0.5c0,0.55,0.75,0.44,0.75,0.8c0,0.16-0.14,0.22-0.31,0.22C297.92,545.84,297.73,545.68,297.73,545.68    L297.73,545.68z"></path>		</g>		<path id="path3021" fill="#787878" d="M17.54,33.98c0,1.58,0.55,2.19,1.39,2.19c2.11,0,5.46-4.92,5.34-10.08   c3.19-3.37,7.02-8.65,7.02-12.88c0-1.02-0.29-1.89-1.5-1.89c-1.85,0-4.5,3.2-6.19,6.37c-1.62,3.29-3.14,7.04-5.15,12.19   C17.98,31.18,17.54,32.74,17.54,33.98L17.54,33.98z"></path>	</g></g></svg>