<svg xmlns="http://www.w3.org/2000/svg" xmlns:xlink="http://www.w3.org/1999/xlink" id="Layer_1" data-name="Layer 1" viewBox="0 0 972.83525 748.73681"><defs><style>.cls-1,.cls-25,.cls-35,.cls-36,.cls-6,.cls-7{fill:none;}.cls-2{opacity:0.17;}.cls-3{fill:#fff;}.cls-4{fill:#0c0050;}.cls-5{clip-path:url(#clip-path);}.cls-6,.cls-7{stroke:#1e549e;stroke-width:6.36509px;}.cls-25,.cls-35,.cls-36,.cls-6,.cls-7{stroke-miterlimit:10;}.cls-35,.cls-36,.cls-7{stroke-linecap:round;}.cls-8{fill:#7e0861;}.cls-9{clip-path:url(#clip-path-2);}.cls-10{fill:#620060;}.cls-11{fill:#e9b994;}.cls-12{clip-path:url(#clip-path-3);}.cls-13{opacity:0.23;}.cls-14{fill:#fefefe;}.cls-15{fill:#bc785b;}.cls-16{fill:#bd7a5e;}.cls-17{clip-path:url(#clip-path-4);}.cls-18{fill:#bc795d;}.cls-19{clip-path:url(#clip-path-5);}.cls-20{fill:#bc795c;}.cls-21{fill:#d49d00;}.cls-22{fill:#971f79;}.cls-23{fill:#bd0687;}.cls-24{fill:#1e549e;}.cls-25,.cls-35{stroke:#000;}.cls-25{stroke-width:3.18254px;}.cls-26{fill:#080808;}.cls-27{fill:#070707;}.cls-28{fill:#f2c104;}.cls-29{fill:#090909;}.cls-30{clip-path:url(#clip-path-6);}.cls-31{fill:#dfb63d;}.cls-32{opacity:0.28;}.cls-33{fill:#fefefd;}.cls-34{fill:#ba5201;}.cls-35,.cls-36{stroke-width:2.38691px;}.cls-36{stroke:#7e0861;}.cls-37{fill:#6858c6;}</style><clipPath id="clip-path"><path class="cls-1" d="M325.41237,606.14583c-5.61374,3.54229-11.74554,6.07682-17.74287,8.84989-8.5473,3.95206-24.29035,14.48131-25.211,13.80864-.47042-.39539-28.92892-16.66572-42.21717-24.19124a4.84069,4.84069,0,0,1-2.71106-3.25024c-7.05937,9.66408-76.65814,34.35181-79.49036,33.79015-4.48317,1.62439-7.49342-1.63459-10.74613-3.50334-24.16618-15.49752-46.64255-33.4982-70.25522-49.80213-18.55531-15.6872-39.93462-26.91439-60.8478-38.97285C3.61955,536.14939.097,528.25849,0,514.27717c1.6273-15.46828.37781-48.65539,10.33778-59.79808,8.3839-9.27209,20.56994-14.17022,32.44538-17.35034,19.354-2.15809,39.02093,3.67263,56.60558,11.34714,45.65228,16.44786,91.77663,31.29465,136.9768,48.89062,12.23242,4.66785,24.60309,9.13981,36.63839,14.23044,2.24016,1.8232,3.75076-6.97873,3.834-7.6348.995-.27476,82.37416-1.90632,85.48445-2.40544,5.12248-.82186,4.72272,7.53717,6.25184,6.56623,5.8276-3.70041,12.46881-4.43816,19.00756-5.53264,11.96591-2.94013,23.69483-6.80584,35.35665-10.78227,27.6973-19.686,59.34646-32.346,90.05973-46.51022,26.46422-10.53091,58.9634-18.43123,84.69608-1.9787a29.70186,29.70186,0,0,1,15.47994,24.00748,236.97187,236.97187,0,0,1,3.93593,47.8651c-.19871,6.79738-.64189,13.60865-2.54221,20.21694-10.43971,14.58669-28.78547,21.45837-44.02094,29.863-32.722,18.07741-68.6944,28.34521-104.00473,40.01305-23.2031,8.55386-47.657,18.62878-69.60056,30.10509-.18551,1.46073-70.32618-33.7988-70.08487-33.18051"></path></clipPath><clipPath id="clip-path-2"><path class="cls-1" d="M264.51772,252.62647c-5.93843-67.90031,67.32471-98.1566,124.53993-79.63255,45.98206,16.17076,38.49263,89.24144,110.2774,19.161,23.9052-43.88017,78.76467-100.20951,132.03179-69.806,49.0257,27.98264,22.86737,57.78395,53.91571,82.4605,39.94862,31.75029,128.76361-104.49019,154.26746,3.58,4.6871,19.86113,25.1254,27.05213,43.35552,23.69209,53.76305-15.569,109.51336,27.60466,83.20723,84.11244-13.79468,37.54782-56.69835,28.708-86.77109,38.53848-18.19821,7.02015-25.34176,28.63471-43.56087,34.07525-23.01713,4.35894-44.09331-4.89868-63.71725-15.94619C722.305,349.19125,704.97012,427.0731,647.15993,362.596c-44.932-53.13424-64.87832,64.79254-117.52588,4.08423-9.18006-8.99412-28.04535-29.9679-44.11713-8.53886-19.40133,25.86845-69.58982,52.62-112.92816,10.716C318.91443,346.78992,261.65534,320.18245,264.51772,252.62647Z"></path></clipPath><clipPath id="clip-path-3"><path class="cls-1" d="M444.90768,77.46441c1.25433-1.00287,1.19816-5.44575,3.13854-3.26987,1.12847,2.31265,5.71963,3.13129,4.304,6.16137a184.93977,184.93977,0,0,1-8.375,18.47224c-3.6667,7.20447-20.01823,15.91006-16.88135,24.48486,14.628,36.95912,23.78459,75.91376,34.08232,114.24245,2.48391,5.75138,2.45471,12.06935-2.15864,16.89479-20.55361,24.38847-57.49171,65.35275-77.34082,90.32953-13.3113,16.37129-20.88444-37.14343-13.32225-44.62954,15.9303-14.03927,32.14991-27.34663,47.23071-42.3161,5.21526-5.23133,11.14062-9.74521,16.63781-14.703a8.2045,8.2045,0,0,0,2.79544-10.49583c-5.57139-27.94269-8.10515-56.27508-12.95728-84.32975-1.90458-9.65458-1.6566-20.39419-4.82027-29.6038-3.20362-8.33429,4.11948-14.53286,8.101-20.80515,2.6768-3.6689,1.31368-8.73545,5.28888-11.93225.2776-.34887.6585-.04389.93607.19167,2.82484,1.83092.25356,5.58681,3.25631,7.49268,3.07649-4.36723,7.53822-7.75571,9.07665-13.19788C444.70025,79.59839,444.14474,78.37379,444.90768,77.46441Z"></path></clipPath><clipPath id="clip-path-4"><path class="cls-1" d="M283.75814,373.64465c-18.1-19.86662-37.53358-38.48937-55.99151-58.04053-9.22358-9.52986-19.18457-24.83541-28.40178-34.37148-3.25544-3.368-6.48038-6.76582-9.7514-10.11843-2.20776-2.87048-3.178-8.85388-2.05912-12.27588,9.657-33.83288,14.4914-65.03642,25.97043-98.33425,3.0735-9.64653,5.83132-18.691,8.58825-27.61741.7056-2.28459-1.19686-7.49648-3.19707-8.71728-8.52186-5.201-15.37654-12.28311-22.06942-19.55791-2.84155-3.44677-11.078-8.741-4.1837-12.44594,2.17334-.67457,4.72851-2.604,6.86164-1.07526,5.41488,2.44388,9.99561,6.204,14.90642,9.44318,2.71606,1.79154,3.05283,1.6763,4.18126-1.33827.69181-1.70869,2.7586-2.746,3.45425-.13791,2.38691,3.79379,3.433,8.00162,4.3523,12.32755,1.69529,5.55707,6.01179,9.35913,6.40035,15.85373a18.419,18.419,0,0,1-1.1657,9.159c-.475,1.34152-1.4595,3.7431-1.44343,5.33025-1.92741,27.58337-7.75016,61.97238-9.79282,89.18586-.38252,5.96581-.97968,6.19182-1.33709,12.16006.26723,3.54321,1.3064,16.69167,3.80286,18.886,17.60656,13.31423,31.376,32.83912,43.63037,44.25947,3.44789,3.21323,7.84533-4.88483,16.43078,1.7763C285.43934,309.93161,289.12174,379.46128,283.75814,373.64465Z"></path></clipPath><clipPath id="clip-path-5"><path class="cls-1" d="M339.99842,306.64284a43.63255,43.63255,0,0,1-22.90308,6.08733c-2.68361-.04524-20.93734-1.68207-15.42345-6.35718,4.42695-5.03335,7.71672-10.68524,8.39909-17.42917.84542-18.57826,10.38426-36.99578,19.1875-8.854C331.98764,289.19243,332.23381,300.048,339.99842,306.64284Z"></path></clipPath><clipPath id="clip-path-6"><path class="cls-1" d="M376.73362,292.64112c-10.05116,14.80658-7.86355,36.44025,6.56624,47.70238,2.36378,2.04535,3.359-3.79019,5.513-3.51874a324.1365,324.1365,0,0,1-1.19684,54.6578c-1.46942,17.99823-8.14144,34.9031-11.42166,52.501-1.64213,12.87078-9.12124,24.42706-8.67357,37.52337.49,8.62695,1.18539,17.53657,2.41138,26.15354.50653,1.49246-6.88566,2.49891-10.26292,1.524-14.16992-4.163-29.05727-3.7048-43.64648-2.75855-12.87325.90031-28.26513,2.98867-41.0351,4.808-.89125,1.22821,1.06436-5.94979,1.21313-6.335,1.42885-13.497-3.93174-26.65467-5.309-40.03428q-6.13563-27.97587-12.3843-55.94395c-2.3637-12.83085-10.05164-25.94362-6.34477-39.08871,2.63507-9.86742,3.60182-20.16781,8.79955-29.14911,4.03738-10.28156,5.70521-21.4437,7.03124-32.31718.15468-1.26836,2.55343-1.99834,4.77381-2.66445,5.32674-1.598,14.16774-1.736,21.43376-.2906,3.59282.71472,5.73047,3.46517,9.23558,4.50729a45.651,45.651,0,0,0,38.03348-6.80217c7.13867-4.81963,15.05749-6.53891,23.44511-6.16842C369.91753,297.63483,372.52305,293.49171,376.73362,292.64112Z"></path></clipPath></defs><g id="nKzEYv" class="cls-2"><path d="M348.16371,604.298c46.59015-.19433,206.13173-31.85028,162.25772,60.01814C460.21811,707.341,384.63532,701.00953,322.194,704.79276c-49.57082,1.11738-99.0409-3.35863-148.59417-4.10962-30.79454-.758-72.50057,1.05812-87.34709-27.77615C65.36461,621.9108,210.11967,616.0935,242.11048,608.654,277.29865,602.49165,313.282,608.45359,348.16371,604.298Z"></path></g><g id="sZyL8d"><path class="cls-3" d="M315.461,679.31357a8.88315,8.88315,0,0,1-1.12952-.37956c-9.47505-4.3126-18.99062-8.53091-28.40559-12.98217-10.132-4.79027-20.22715-9.64344-30.18253-14.7846-7.08508-3.65888-13.995-7.69-21.35766-10.76333-5.95265-2.4848-21.89212-8.75306-23.41168-10.24681-1.17615-1.15616-1.03-2.50125-.475-3.98128,1.21666-3.2444,3.13346-6.1199,4.6439-9.20451,2.49264-5.09047,4.90359-10.21065,8.37223-14.75538a17.80684,17.80684,0,0,0,2.45688-5.241c.72842-2.16158,1.25915-2.3594,3.30446-1.27037a81.07388,81.07388,0,0,1,13.50946,9.56235c9.67357,8.03626,20.04947,15.10366,30.34733,22.29666,15.82345,11.05258,31.485,22.33651,47.19381,33.55209,1.92479,1.37423,3.69788,2.95844,5.58181,4.39225.84026.6395,1.2797,1.29287.25452,2.0211-.59681.42395-.31374.84029-.30158,1.30308C325.99385,673.86006,320.75994,679.28915,315.461,679.31357Z"></path></g><g id="fNqVHh"><path class="cls-3" d="M344.7477,640.76085c-13.82517,4.58962-27.76594,8.822-41.54258,13.56607-18.113,6.23732-36.2987,12.26392-54.43471,18.435-5.70587,1.94153-11.28347,4.25062-16.89453,6.43732-10.52653,4.1023-21.34179,7.39758-31.81591,11.627-1.52972.61769-3.08457,1.17349-4.61353,1.793-.61461.249-1.2091.59355-1.76544-.03923-.559-.63573-.20327-1.16734.2297-1.71121,2.46008-3.09016,4.80479-6.27913,7.39469-9.25609a6.91806,6.91806,0,0,1,5.67674-2.54634c5.61467.17429,11.23749.09562,16.857.09565a12.608,12.608,0,0,0,2.3545-.21826c3.22918-.61745,3.6872-1.37335,2.93586-4.65135a46.94875,46.94875,0,0,0-3.63-10.30016c-.80552-1.63391-.328-2.42628,1.14835-3.21866,23.6413-12.68815,46.3253-27.00006,69.34693-40.74034,11.17479-6.66958,22.72984-12.655,34.25422-18.691,1.20739-.63238,2.82692-1.92165,2.69776,1.067-.02149.49732.5238.34583.82734.40991a17.23211,17.23211,0,0,1,10.97363,7.72861Z"></path></g><g id="legs"><path class="cls-4" d="M325.41237,606.14583c-5.61374,3.54229-11.74554,6.07682-17.74287,8.84989-8.5473,3.95206-24.29035,14.48131-25.211,13.80864-.47042-.39539-28.92892-16.66572-42.21717-24.19124a4.84069,4.84069,0,0,1-2.71106-3.25024c-7.05937,9.66408-76.65814,34.35181-79.49036,33.79015-4.48317,1.62439-7.49342-1.63459-10.74613-3.50334-24.16618-15.49752-46.64255-33.4982-70.25522-49.80213-18.55531-15.6872-39.93462-26.91439-60.8478-38.97285C3.61955,536.14939.097,528.25849,0,514.27717c1.6273-15.46828.37781-48.65539,10.33778-59.79808,8.3839-9.27209,20.56994-14.17022,32.44538-17.35034,19.354-2.15809,39.02093,3.67263,56.60558,11.34714,45.65228,16.44786,91.77663,31.29465,136.9768,48.89062,12.23242,4.66785,24.60309,9.13981,36.63839,14.23044,2.24016,1.8232,3.75076-6.97873,3.834-7.6348.995-.27476,82.37416-1.90632,85.48445-2.40544,5.12248-.82186,4.72272,7.53717,6.25184,6.56623,5.8276-3.70041,12.46881-4.43816,19.00756-5.53264,11.96591-2.94013,23.69483-6.80584,35.35665-10.78227,27.6973-19.686,59.34646-32.346,90.05973-46.51022,26.46422-10.53091,58.9634-18.43123,84.69608-1.9787a29.70186,29.70186,0,0,1,15.47994,24.00748,236.97187,236.97187,0,0,1,3.93593,47.8651c-.19871,6.79738-.64189,13.60865-2.54221,20.21694-10.43971,14.58669-28.78547,21.45837-44.02094,29.863-32.722,18.07741-68.6944,28.34521-104.00473,40.01305-23.2031,8.55386-47.657,18.62878-69.60056,30.10509-.18551,1.46073-70.32618-33.7988-70.08487-33.18051"></path></g><g class="cls-5"><path class="cls-6" d="M245.53069,486.66173s-7.1052,36.85822-21.3156,41.299-35.97007-6.217-44.85157-22.20375-23.98005-47.96009-31.08525-54.62122"></path><path class="cls-6" d="M47.91733,580.80562c21.01955-7.40125,45.02652-8.66116,56.84159,9.4736,12.73015,19.5393,29.605,39.37465,63.05865,42.92725"></path><path class="cls-6" d="M32.22668,562.15447s38.78255-26.05239,68.68359-14.2104,33.1576,29.901,39.0786,39.37465,15.3946,30.49315,28.71685,35.526"></path><path class="cls-6" d="M24.82543,555.04927s34.04668-33.57713,65.131-37.89439c10.6578-1.48025,38.19045,3.84865,52.99295,20.7235s26.34845,63.35469,83.19,48.55219c62.45651-16.26471,112.499,42.92725,112.499,42.92725"></path><path class="cls-6" d="M-18.99,492.58273c18.65115,1.48025,43.8154,8.58545,21.61165,40.55885"></path><path class="cls-6" d="M-15.43737,476.3s46.1838,1.1842,47.9601,33.1576c1.95531,35.19557-18.9472,46.18379-18.9472,46.18379"></path><path class="cls-7" d="M264.62591,496.87545s-5.773,36.85823-19.09522,46.62787c-11.86077,8.6979-46.1838,12.87818-67.05532-9.76964s-41.74305-69.71977-48.40417-83.93017-13.42175-21.55477-27.53265-21.3156c-26.20042.44407-47.516,30.64117-47.516,30.64117"></path><path class="cls-7" d="M244.64254,567.48337s45.73972-17.763,56.39752-66.61124"></path><path class="cls-7" d="M399.6247,550.60852c-9.76965,2.9605-34.81125-4.85011-51.5127-8.8815-17.1709-4.14469-39.67069,13.6183-15.9867,29.901,18.49257,12.71364,41.151,16.28275,41.151,16.28275"></path><path class="cls-7" d="M395.77605,511.52993s30.1971-5.03285,32.5655-31.9734"></path><path class="cls-7" d="M398.4405,525.74033s26.94055-8.58545,36.7102-15.9867c12.01409-9.10159,21.90769-49.7364,21.90769-49.7364"></path><path class="cls-7" d="M445.8085,625.50917c12.43409-24.2761,29.99561-45.45664,43.22329-44.11145,17.46695,1.7763,29.605,16.87485,29.605,16.87485"></path><path class="cls-7" d="M424.789,633.50252s-7.6973-30.1971,3.84865-51.80875,35.822-35.822,48.55219-38.19045,32.5655-5.62494,45.5917,14.2104,18.3551,28.71685,24.57215,32.26945"></path><path class="cls-7" d="M562.45219,579.32537c.29605-8.58545-3.25655-26.94055-9.4736-39.67069s-13.0262-30.1971,1.48025-46.1838,46.18379-38.78255,58.32184-44.9996"></path><path class="cls-7" d="M626.399,470.379s-20.03455,6.7854-30.7892,14.8025c-16.28275,12.138-23.802,27.12725-16.87485,43.8154,6.5131,15.69064,10.95385,33.74969,8.58545,44.99959"></path><path class="cls-7" d="M472.749,442.84633a180.7105,180.7105,0,0,1,51.21665,9.76965c13.32225,4.44075,33.7497,12.13805,41.447-4.1447s8.58544-33.45364,8.58544-33.45364"></path></g><g id="RHlN2z"><path class="cls-8" d="M264.51772,252.62647c-.33914-74.28228,67.32471-98.1566,124.53993-79.63255,45.98206,16.17076,57.85507,87.00077,110.2774,19.161s81.30525-97.89855,132.03179-69.806,25.85835,67.61525,53.91571,82.4605c46.64242,24.67865,134.14253-100.21577,154.26746,3.58,4.06711,19.9973,25.1254,27.05213,43.35552,23.69209,53.76305-15.569,109.51336,27.60466,83.20723,84.11244-13.79468,37.54782-56.69835,28.708-86.77109,38.53848-18.19821,7.02015-25.34176,28.63471-43.56087,34.07525-23.01713,4.35894-44.09331-4.89868-63.71725-15.94619C722.305,349.19125,704.97012,427.0731,647.15993,362.596c-44.932-53.13424-64.87832,64.79254-117.52588,4.08423-9.18006-8.99412-23.84211-24.24658-37.4439-16.69582-34.72942,39.50124-76.26305,60.777-119.60139,18.873C318.91443,346.78992,264.85686,326.90876,264.51772,252.62647Z"></path></g><g class="cls-9"><path class="cls-10" d="M355.92032,421.54924c28.03991-14.01917-38.825-106.43216,87.29517-108.93971,66.75041-1.32715,112.29767,50.04907,179.0157-2.42286,132.1492-97.07956,166.0889,40.05276,271.63681,8.18022,29.29782-8.1872-30.73743-9.89853-41.8312-20.41841A516.18862,516.18862,0,0,1,806.02521,274.217c-104.35843-81.54718-187.92477,97.71244-294.666,41.61633a151.21861,151.21861,0,0,0-126.80463,1.11878c-9.87752,2.2811-26.24927,18.7426-33.42272,6.40806,95.88538-83.85464,174.5785,16.83493,249.38843-18.97331,217.373-157.6663,187.30752,35.52941,392.81176-12.51776,4.14306,64.62443.03439,135.911,1.43964,202.72249C983.23754,504.41815,324.36816,427.14574,355.92032,421.54924Z"></path></g><g id="a5tNYg"><path class="cls-11" d="M283.75814,373.64465c-18.1-19.86662-37.53358-38.48937-55.99151-58.04053-9.22358-9.52986-19.18457-24.83541-28.40178-34.37148-3.25544-3.368-6.48038-6.76582-9.7514-10.11843-2.20776-2.87048-3.178-8.85388-2.05912-12.27588,9.657-33.83288,14.4914-65.03642,25.97043-98.33425,3.0735-9.64653,5.83132-18.691,8.58825-27.61741.7056-2.28459-1.19686-7.49648-3.19707-8.71728-8.52186-5.201-15.37654-12.28311-22.06942-19.55791-2.84155-3.44677-11.078-8.741-4.1837-12.44594,2.17334-.67457,4.72851-2.604,6.86164-1.07526,5.41488,2.44388,9.99561,6.204,14.90642,9.44318,2.71606,1.79154,3.05283,1.6763,4.18126-1.33827.69181-1.70869,2.7586-2.746,3.45425-.13791,2.38691,3.79379,3.433,8.00162,4.3523,12.32755,1.69529,5.55707,6.01179,9.35913,6.40035,15.85373a18.419,18.419,0,0,1-1.1657,9.159c-.475,1.34152-1.4595,3.7431-1.44343,5.33025-1.92741,27.58337-7.75016,61.97238-9.79282,89.18586-.38252,5.96581-.97968,6.19182-1.33709,12.16006.26723,3.54321,1.3064,16.69167,3.80286,18.886,17.60656,13.31423,31.376,32.83912,43.63037,44.25947,3.44789,3.21323,7.84533-4.88483,16.43078,1.7763C285.43934,309.93161,289.12174,379.46128,283.75814,373.64465Z"></path></g><g id="aS83en"><path class="cls-11" d="M444.90768,77.46441c1.25433-1.00287,1.19816-5.44575,3.13854-3.26987,1.12847,2.31265,5.71963,3.13129,4.304,6.16137a184.93977,184.93977,0,0,1-8.375,18.47224c-3.6667,7.20447-20.01823,15.91006-16.88135,24.48486,14.628,36.95912,23.78459,75.91376,34.08232,114.24245,2.48391,5.75138,2.45471,12.06935-2.15864,16.89479-20.55361,24.38847-57.49171,65.35275-77.34082,90.32953-13.3113,16.37129-20.88444-37.14343-13.32225-44.62954,15.9303-14.03927,32.14991-27.34663,47.23071-42.3161,5.21526-5.23133,11.14062-9.74521,16.63781-14.703a8.2045,8.2045,0,0,0,2.79544-10.49583c-5.57139-27.94269-8.10515-56.27508-12.95728-84.32975-1.90458-9.65458-1.6566-20.39419-4.82027-29.6038-3.20362-8.33429,4.11948-14.53286,8.101-20.80515,2.6768-3.6689,1.31368-8.73545,5.28888-11.93225.2776-.34887.6585-.04389.93607.19167,2.82484,1.83092.25356,5.58681,3.25631,7.49268,3.07649-4.36723,7.53822-7.75571,9.07665-13.19788C444.70025,79.59839,444.14474,78.37379,444.90768,77.46441Z"></path></g><g class="cls-12"><g id="iKtBFc" class="cls-13"><path class="cls-14" d="M431.88087,118.37485c13.67062-10.74161,23.99267-29.28463,32.31766-44.39317C456.82038,73.96984,420.03939,114.5746,431.88087,118.37485Z"></path><path class="cls-15" d="M461.5346,232.35677c67.69851,63.558-2.15169,138.12621-86.63461,153.68259-13.72589-2.2574-26.17934-14.858-29.85667-28.14995,3.80935-12.95076,23.71117-18.03418,33.40142-27.61347,29.45533-23.30557,51.85977-54.112,75.65133-82.82515.3106-23.5555-9.08821-48.7733-7.48392-73.39662C454.88619,160.03046,456.35955,226.0162,461.5346,232.35677Z"></path><path class="cls-16" d="M431.88029,118.37389c-11.1038-5.98347,23.08517-40.2283,30.90455-44.43635,4.15772-.11287-3.18127,7.44175-3.81492,9.74481C450.517,95.19371,443.61165,110.42653,431.88029,118.37389Z"></path></g></g><g class="cls-17"><g id="vqayOb" class="cls-2"><path class="cls-18" d="M236.54321,112.5703c17.90526,17.54264-13.67287,148.7282-5.29071,150.02872,12.76575,8.96466,25.05734,24.05293,34.88911,34.96115,5.17518,5.003,11.24868,9.29783,15.03982,15.44487,5.18649,8.40954,8.986,24.73678,3.15984,21.40729-1.68308-.96182-29.1888-32.77356-41.52975-47.1407C233.2866,280.046,226.033,267.533,217.14546,261.38485c-3.699,2.614-7.60041-1.32488-5.932-5.25331,7.9458-31.38117,8.86693-63.4282,14.15949-95.36921,6.58569-17.49889,3.54268-34.2921,3.87793-52.357a10.81506,10.81506,0,0,1,1.09942-3.93544,3.21745,3.21745,0,0,1,3.52629-1.93878,3.04842,3.04842,0,0,1,2.63268,3.01714C236.642,107.81518,236.54321,110.09579,236.54321,112.5703Z"></path></g></g><g id="fz26if"><path class="cls-11" d="M339.99842,309.02975a43.63255,43.63255,0,0,1-22.90308,6.08733c-2.68361-.04524-20.93734-1.68208-15.42345-6.35718,4.42695-5.03335,7.71672-10.68524,8.39909-17.42918.84542-18.57825,10.38426-36.99577,19.1875-8.854C331.98764,291.57934,332.23381,302.43494,339.99842,309.02975Z"></path></g><g class="cls-19"><g id="vNAW0D"><path class="cls-20" d="M305.73985,286.976c0-.2803,7.59173-13.53841,14.06238-10.95385,4.6905,1.87352,17.84758,7.1564,14.65447,11.694C328.83175,295.7095,312.99308,298.0779,305.73985,286.976Z"></path></g></g><g id="CE6CFe"><path class="cls-11" d="M319.13612,290.386c-17.85667.3312-34.04575-54.238,0-70.81681,10.48809-5.10725,24.16776,17.63278,25.16424,31.08524C345.48456,266.64109,338.37936,290.029,319.13612,290.386Z"></path></g><g id="E6Slae"><path class="cls-21" d="M376.73362,292.64112c-10.05116,14.80658-7.86355,36.44025,6.56624,47.70238,2.36378,2.04535,3.359-3.79019,5.513-3.51874a324.1365,324.1365,0,0,1-1.19684,54.6578c-1.46942,17.99823-8.14144,34.9031-11.42166,52.501-1.64213,12.87078-9.12124,24.42706-8.67357,37.52337.49,8.62695,1.18539,17.53657,2.41138,26.15354.50653,1.49246-3.04994,1.09607-4.53915,1.30119-1.22411.16861-2.34651,1.19772-5.72377.22282-14.16992-4.163-29.05727-3.7048-43.64648-2.75855-12.87325.90031-28.26513,2.98867-41.0351,4.808-.89125,1.22821,1.06436-5.94979,1.21313-6.335,1.42885-13.497-3.93174-26.65467-5.309-40.03428q-6.13563-27.97587-12.3843-55.94395c-2.3637-12.83085-10.05164-25.94362-6.34477-39.08871,2.63507-9.86742,3.60182-20.16781,8.79955-29.14911,4.03738-10.28156,5.70521-21.4437,7.03124-32.31718.15468-1.26836,2.55343-1.99834,4.77381-2.66445,5.32674-1.598,14.16774-1.736,21.43376-.2906,3.59282.71472,5.73047,3.46517,9.23558,4.50729a45.651,45.651,0,0,0,38.03348-6.80217c7.13867-4.81963,15.05749-6.53891,23.44511-6.16842C369.91753,297.63483,372.52305,293.49171,376.73362,292.64112Z"></path></g><g id="FdRuWU"><path class="cls-22" d="M333.65642,208.67856c1.08654-4.48916,2.08551-4.99979,6.66474-3.62309,12.80341,3.84919,19.90229,13.54537,19.44836,26.60533-1.12885,9.97956-5.24276,19.357-6.22,29.39918-.27046,3.11678,9.01043,4.72694,10.97153,2.67489,1.0139-1.09757,2.108.57822.84354,1.19315-3.24036,3.36772-12.79735-.229-12.55817,3.06255a57.35534,57.35534,0,0,0,3.3614,22.9256c.6508,1.15538-.58994,2.0565-1.42466.83271a41.74208,41.74208,0,0,1-12.20378-27.25544,6.1519,6.1519,0,0,0-2.22527-4.83706c-5.55254-6.06551-7.25571-17.76579-12.11145-24.39658-7.40125,1.73929-18.32791,8.89853-23.30627,17.12559-3.622,5.61093-7.396,11.14879-13.61306,14.14242-7.84289,3.611-14.53608,12.01183-23.976,8.69659a68.03032,68.03032,0,0,0-12.89451-3.314c-2.89546-1.06779-1.72181-4.33038.886-2.29491,2.404,1.51922,4.32763.64638,6.2067-.89293,13.12226-9.57716,14.93345-25.58781,20.62053-39.56606,8.56111-17.12066,28.227-28.40442,47.33679-25.9361C332.376,203.52621,332.42722,206.49861,333.65642,208.67856Zm-1.606,24.03747c2.41168,6.14572,3.88928,12.02732,7.43669,17.03251C338.73063,243.56159,337.97255,237.37534,332.05038,232.716Zm4.61921,2.65933c3.71194,5.27229,3.77672,11.47568,5.0613,17.32586C342.95912,246.39285,340.03369,236.35441,336.66959,235.37536Z"></path></g><polygon class="cls-23" points="276.875 632.929 274.211 634.705 283.536 659.573 287.089 658.241 276.875 632.929"></polygon><polygon class="cls-23" points="292.862 623.159 283.536 628.784 291.677 657.057 305.592 652.172 292.862 623.159"></polygon><path class="cls-11" d="M346.81679,639.553l-35.08192,11.32391s.222-5.55093-1.22121-8.10437-5.884-4.32973-5.773-7.21621,1.99833-5.3289.44407-8.21539-3.94116-3.90416-3.88566-7.32724,27.31061-18.9842,27.31061-18.9842Z"></path><path class="cls-11" d="M218.03505,633.447l21.98171,9.99169s3.5526-.88815,5.10686-3.10853.66611-3.77464.44408-6.217,2.07235-2.66445,3.25655-4.44075,0-.81413,1.92432-3.84865,2.44241-1.92432,3.40458-3.25655-.29605-4.66278,0-6.217a15.34678,15.34678,0,0,0,.296-1.83181l-25.70084-20.594-20.927,34.08275Z"></path><g id="SuCSSw"><path class="cls-24" d="M200.26713,546.75277h.8633c1.58661,1.937,3.14309,3.89978,4.76508,5.80669,6.82144,8.0197,14.63556,15.05173,22.2615,22.26487,5.1127,4.83595,10.05424,9.91362,15.84436,13.93743,3.42146,2.37773,2.695,2.47978.73966,5.27079a101.91051,101.91051,0,0,0-8.60149,14.37535c-7.27887,15.19264-17.02778,28.69577-28.03643,41.34547a12.20054,12.20054,0,0,0-2.60417,3.65179c-.4289,1.16791-1.09327,1.54352-2.3213,1.04664a22.44288,22.44288,0,0,0-4.07718-1.31559,243.30745,243.30745,0,0,1-27.27386-7.40127c-6.58161-2.09379-12.73306-5.57238-19.79634-6.12315-.85192-.06643-1.42079-.71171-.98418-1.503.99-1.79422,1.156-4.01846,2.86794-5.43841a5.25132,5.25132,0,0,0,1.74043-2.42166c2.37388-7.54595,7.08213-13.89516,10.79552-20.73189,10.87409-20.0203,22.93442-39.3999,32.25746-60.25459A21.12667,21.12667,0,0,1,200.26713,546.75277Z"></path></g><g id="Ep7j2i"><path class="cls-24" d="M354.67258,663.02753h-3.88276a5.35193,5.35193,0,0,1-1.89009-2.71419c-2.19642-6.04-4.5044-12.03972-6.66743-18.09145-2.523-7.059-5.03692-14.1243-7.36916-21.24771-2.40987-7.36054-5.14693-14.56124-9.33531-21.11091-.798-1.24788-.57749-1.92932.48458-2.64775,2.731-1.84734,5.3808-3.83108,8.20784-5.51723,10.92825-6.518,21.43225-13.60793,30.80745-22.27062.50683-.46831,1.1924-.77007.88983-1.72748-.22088-.6989.22552-1.60135.90706-1.2099.95362.54771,3.1489-.47551,2.798,1.36594-.292,1.53258.41594,2.232,1.03889,3.17187a37.50981,37.50981,0,0,1,2.62307,4.42775,244.54133,244.54133,0,0,1,12.39255,30.10491A275.51932,275.51932,0,0,0,404.717,650.93945v1.29516c-.70935.31185-1.4034.66612-2.13051.9287a126.65408,126.65408,0,0,1-15.05953,4.02542c-9.44675,2.14763-18.84425,4.5521-28.58553,5.13673C357.55523,662.40865,355.97283,662.10319,354.67258,663.02753Z"></path></g><path class="cls-25" d="M301.35461,616.59065s-.79563,3.83015.09252,5.71747c1.44313,3.06666,4.20878,3.99981,4.32973,6.32807.148,2.84948-1.44609,5.94414-.44407,8.21538,1.11018,2.51643,3.44158,2.77547,4.7738,5.3289a15.8639,15.8639,0,0,1,1.33223,7.21622,3.23316,3.23316,0,0,0,.5921,2.07235"></path><path class="cls-25" d="M255.6334,614.86986a1.52579,1.52579,0,0,0-1.48025,1.48025c-.148,1.48025,1.48025,4.88483,0,6.217s-2.66445,1.48025-3.40458,3.25655-.5921,2.9605-1.92432,3.84865-3.84865,1.7763-3.25655,4.44075,1.62827,4.29273-.44408,6.217a33.39447,33.39447,0,0,1-5.18087,3.70063"></path><g id="fDIRAo"><path class="cls-26" d="M277.18047,662.29766c10.28219,4.26339,20.28592,8.783,30.502,13.15323,1.041.72946,3.63237.5057,3.58617,2.1013-.78288,1.55382-3.02131-.18589-4.23079-.43722q-14.50327-6.22419-28.98872-12.48838C276.86723,664.28189,275.45316,663.02325,277.18047,662.29766Z"></path><path class="cls-26" d="M241.61375,644.088c-.14379.77806-1.01081.83361-1.71005.46327-6.78925-3.59578-13.87054-6.58255-20.77875-9.928-1.82136-.56688-.60618-2.73141.85263-1.5235q10.14884,4.68634,20.26122,9.45073C240.77344,642.803,241.54962,642.92044,241.61375,644.088Z"></path><path class="cls-26" d="M329.456,660.70868c-1.41126,2.48761-8.53524-4.197-10.84957-4.88341-1.584-1.40339-6.73107-2.90544-7.08017-4.5892.37921-.96409,1.29264-.67964,2.01626-.27857C318.68681,654.27354,325.16892,656.53264,329.456,660.70868Z"></path></g><g id="QQiATP"><path class="cls-26" d="M327.19885,601.70953c.22946.96941,1.47045,1.15348.3053,1.59589a62.57346,62.57346,0,0,0-8.60094,4.69684c-30.43157,18.34716-63.37533,31.81679-95.33116,47.1801-.77987.39163-1.99429,1.39067-2.66848.41936-.347-.69505.11572-1.2079.77614-1.52309,34.872-16.79722,71.02919-31.30715,103.79908-52.13437C326.67151,601.33484,326.7196,601.16949,327.19885,601.70953Z"></path><path class="cls-27" d="M193.53748,694.728c-1.59181.25817-1.50358-1.49035-.21985-1.77981,17.56216-7.61385,36.02288-12.80469,53.95223-19.42718,29.95144-13.00845,61.28582-21.89826,92.27679-31.915.65562-.22907,1.54488-1.02,1.97939.1781.42423,1.16977-.78244,1.20621-1.40607,1.45643-26.90576,9.4889-54.88937,15.84007-81.03285,27.52124C237.61219,679.77819,214.91188,685.46533,193.53748,694.728Z"></path></g><g id="I4SPDa"><path class="cls-28" d="M153.811,679.97882c12.22133-6.49148,26.38531-8.13828,38.723-14.42346,7.89017-3.9642,16.40712-5.83757,24.93336-7.68749,4.92248-.772,5.04965,2.23131,5.30906,5.98836,3.45521,2.66087,2.80087,7.24045,4.96121,10.65972,1.80029,2.65433-1.79109,4.59624-4.15664,4.08747-35.92824-2.61524-21.9238,11.67287-42.61525,14.66337-2.12605.314-3.52178-1.2966-5.21065-2.045-7.22127-3.78124-15.18444-6.47744-21.94411-10.81467Z"></path></g><g id="azA1Na"><path class="cls-26" d="M215.45551,680.622a50.40444,50.40444,0,0,0-10.47361.8801,4.08365,4.08365,0,0,0-2.51492,1.46006c-3.06955,3.66917-6.45169,7.08814-8.99581,11.17664-.57276.92045-.959,1.49544-2.27007.52468-1.58491-1.17354-5.10762-.05486-6.25779,1.6144-.40922.59392-.78018,1.37071-1.62047,1.11366-.77526-.23716-1.65377-.59777-1.66287-1.671a.83439.83439,0,0,0-.65191-.90341c-9.09529-3.705-17.63438-8.56157-26.51191-12.6989a42.22042,42.22042,0,0,1-10.30635-6.79184c-1.58177-1.40563-2.53336-3.59783-3.83376-5.39606-.58-.802.52768-1.13051,1.3422-1.38383,8.2585-2.56849,16.55952-5.02074,24.72954-7.84658A237.0125,237.0125,0,0,1,192.28,652.98872a104.3903,104.3903,0,0,1,15.56242-2.71921,55.52516,55.52516,0,0,1,11.12288.77317c.26842.03628.70885.15449.749.31431.41908,1.66814,2.26278,2.27624,2.85185,3.733,2.4105,5.961,5.31928,11.75478,6.38044,18.18636a5.0694,5.0694,0,0,1,.18046.61222c.1506,5.59639.41629,6.333-5.28527,6.38572C221.04978,680.30008,218.2612,680.71792,215.45551,680.622Zm-28.93012,11.99081c1.75566,0,3.33015-.01876,4.90378.00941a1.44958,1.44958,0,0,0,1.42328-.67655c2.18165-3.37768,5.16709-6.12176,7.54372-9.32219,1.69988-2.28909,3.8716-2.922,6.39411-3.25784,5.70938-.76015,11.47031-.47262,17.19941-.8582,3.64459-.2453,3.72143-.22234,3.43161-3.84419a8.30406,8.30406,0,0,0-.096-.852c-1.09285-5.89193-3.61175-11.28859-5.84429-16.78876-.3185-.78463-.547-.757-1.19339-.43282a100.20927,100.20927,0,0,1-12.6662,4.95833c-7.17309,2.45041-13.94215,6.13828-21.46091,7.48881-11.18186,2.00851-21.4431,6.62738-32.13521,10.60177,4.41892,2.35065,8.63507,4.70059,12.94887,6.85709,4.06515,2.03221,8.23128,3.86469,12.35854,5.77312.46446.21477,1.05554.89,1.44611.1839.34-.6147-.46139-.92708-.88621-1.272-.38743-.31457-.827-.56763-1.20191-.895a5.31057,5.31057,0,0,1-.34748-7.61688c1.92659-1.86244,4.52763-1.45534,6.66732,1.08525C187.19269,686.34513,187.2145,689.3387,186.52539,692.61279Zm-41.075-18.38728a25.71428,25.71428,0,0,1,3.8355,2.87881c1.33651,1.49723,2.58075,1.396,4.32514.77288,10.46379-3.73788,20.56358-8.5317,31.66422-10.42709,7.39815-1.26321,14.05-4.87169,21.0794-7.30659A97.17848,97.17848,0,0,0,218.24939,655.58c.57284-.287,1.72671-.32843.92472-1.55353-.57041-.87135-1.02315-1.907-2.26428-.96268a9.03057,9.03057,0,0,1-3.32559,1.22952c-8.55475,2.35418-17.03662,5.02867-25.68294,6.9821C173.58855,664.50907,159.94277,669.75188,145.45036,674.22551Zm-2.65373-4.13838c2.0033,2.84537,1.99712,2.83039,4.93168,1.63049,1.24561-.50931,2.51206-.974,3.78808-1.4029q23.33026-7.84141,47.23444-13.72959c4.8008-1.17193,9.53578-2.61092,14.30091-3.92758-1.70453-.29368-3.268-.90637-4.9407-.71385a151.85286,151.85286,0,0,0-15.7631,2.8364,228.95677,228.95677,0,0,0-24.69076,7.35845C159.47764,664.96377,151.17159,667.42622,142.79663,670.08713Zm42.36885,19.349a6.0389,6.0389,0,0,0-1.97709-4.95916c-.94818-.85122-2.0045-1.83544-3.357-.73994a3.18641,3.18641,0,0,0-.91768,3.8393,3.9771,3.9771,0,0,0,1.803,2.03358,6.976,6.976,0,0,1,1.99307,1.88633c.42452.57154.2922,1.78154,1.23222,1.68188,1.2513-.13266.70789-1.50572,1.10742-2.26725A3.86975,3.86975,0,0,0,185.16548,689.43615Z"></path></g><g id="tF0Lkx"><path class="cls-28" d="M316.82726,694.3c-2.0443-18.13823,11.41457-8.11351,11.89689-18.30577-.163-4.03837,2.56912-7.4169,1.87091-11.52423-.20054-.80429.51282-1.6405,1.385-1.98117,4.93972-.32276,7.80844,7.856,13.01784,7.6192,9.667,7.24844,2.04791,28.751,4.20263,40.25333,1.99554,17.22443-7.88684,9.89506-3.64156,18.572,1.96082,3.74769-3.78459,5.83514-2.19158,9.85056,1.639,2.90346-2.11061,6.35572-4.12638,3.021C333.68434,725.01369,322.13722,711.20584,316.82726,694.3Z"></path></g><g id="HF12eB"><path class="cls-29" d="M359.41639,695.483c-.86015,5.59018-.69721,12.27448-1.80942,18.18575-1.45632,10.26749-.4816,20.85047-3.28567,30.88338-.20022.85147-1.33111,1.81718.22049,2.74767.52541.31508-.05905,1.29075-.84106,1.24181-12.6138.72952-16.65841.0004-20.84707-12.6809-5.10988-11.4528-10.35134-22.8504-14.85511-34.583-1.08888-3.17469-5.49093,3.06557-7.79965-.3204-3.05435-4.49314,4.91022-4.65633,5.64559-17.51485.18747-.87728,1.98051-2.04223,2.52713-1.4234,1.0576,1.19732,1.76591.33426,2.536-.16406,5.54508-5.03612,11.11506-13.40462,8.18728-21.15855-.41992-1.09971-1.18329-2.36956-.18352-3.62318h.85929c.08145,1.72456,1.53569,2.105,2.6981,2.74347,7.31142,4.016,13.84552,9.424,21.9932,11.96957C360.70357,673.48147,358.78779,689.85728,359.41639,695.483ZM346.35351,723.5392c1.25854-2.94194.3843-12.562,2.61655-13.27454,1.77772.47043-.089,4.60655.14112,6.15035-.471,9.87195-3.67051,19.11979-7.3971,28.21184-.51662,1.04813-.15864,1.37843.69179,1.72907,2.28935.94391,4.68284.13392,6.98839.45139,4.49718.36013,4.14034-8.23877,4.87732-11.40837.66946-18.58838,4.28135-36.9685,2.61561-55.62276-.30045-4.845-2.34141-7.28378-7.06042-7.5655-1.99436-.87257,2.488,14.09423,2.04511,16.30663.28828,2.72684-.52358,18.43064-2.563,19.064-1.75323-.50551.20886-5.19515.01975-6.802,1.95184-8.822.35439-17.63013-1.58666-26.29159-.60846-6.6691-11.625-9.30854-17.06582-13.60237,2.18126,4.62843,1.01056,8.468-1.0397,11.95132-1.17052,1.73947-3.49419,10.973.42549,9.54172,4.26889-1.27151,5.3109,5.56357,3.64293,8.34428a2.05187,2.05187,0,0,0-.19536,1.97856c2.74931,4.817,2.91078,12.55533,7.422,15.81263,1.24456.46068,1.88876,1.4869.59286,2.61307C340.48143,713.57125,345.91374,719.81116,346.35351,723.5392Zm-1.44775,3.55831c-.2702-1.46089.2356-5.51678-2.19095-4.68189-4.01237,1.7293-9.43878,4.95647-9.56031,9.70893,1.2708,1.63031,4.81037,15.13144,7.13215,11.45755C342.31366,738.2578,344.45559,732.83623,344.90576,727.09751Zm-23.06145-20.67705c9.0749-9.45674,16.12627-1.10648,10.0672-12.568-6.118,5.1917-5.01146-1.59648-8.471-1.38383-1.98774.47757-1.39315,2.66466-2.44072,3.58852C317.3402,699.4115,320.8616,702.74,321.84431,706.42046Zm5.32331,8.16179c1.9145-1.39932,7.22731-7.64257,8.65933-5.60985.67714,1.14789-.69933,1.29193-1.31526,1.72878-7.88922,6.51463-8.80175,5.39851-4.085,14.88885.5598-10.69258,9.77439-15.238,5.1554-22.25021C331.07048,706.76617,328.21894,710.43771,327.16762,714.58225Zm4.85166,13.92469c8.90625-12.43292,15.38335-1.76051,6.23084-17.79023C334.36177,716.10494,332.63561,722.09166,332.01928,728.50694Zm-16.01054-37.27417c2.8985.60989,3.626-3.96936,6.86509-2.31936.95981-.17119,1.06991-2.40436,1.9278-2.88981,2.60413-1.89982,1.45144-4.38867,1.43166-6.99593C321.252,686.42719,317.30392,681.20361,316.00874,691.23277Zm17.867,10.99231a20.14388,20.14388,0,0,0-10.6887,5.34577c-.94858,1.70577,1.302,4.43069,2.11461,6.25077C326.76378,709.00015,330.15373,705.81051,333.87578,702.22508Zm-7.50859-11.006c.03121,1.74216,1.73508,3.76689,3.40861,2.1189.57967-.555,1.55137-1.12144,1.09844-2.05434-.75443-.90812-2.71927-6.478-3.88523-5.22226-.19768.32483-1.01583.6935-.06866,1.06979C328.61247,687.67772,326.24634,689.83113,326.36719,691.21907Zm-11.39878,3.56277c-1.4225.81627-5.8604,4.62581-2.44577,5.34089C316.08062,700.223,316.92409,697.30215,314.96841,694.78184Zm5.16076-3.2662c-.87835.7711-3.62368,1.37594-3.42219,2.50169C318.1647,699.569,320.69885,694.53549,320.12917,691.51564Zm12.03844-1.84015c1.18367-1.95462.35055-6.93558-2.427-5.38658-1.16775.4781-.11383,1.04694.09864,1.44943C330.52811,687.04318,331.33342,688.286,332.16761,689.67549Z"></path></g><g class="cls-30"><g id="PZnytJ"><path class="cls-31" d="M430.22646,358.81215c-63.67375-18.29131-139.05663-9.30593-197.005,18.76952-2.42082-15.04571,62.73758-27.295,76.20291-29.2253C327.87568,345.49379,430.30883,337.78026,430.22646,358.81215Z"></path><path class="cls-31" d="M324.18577,401.24221c15.62917-2.748,97.95069,24.82713,90.60846,46.53678-6.13381,3.28064-12.73936-12.12974-19.90507-13.96915-40.97714-27.06431-99.38629-35.25827-140.29492-4.04225a7.31977,7.31977,0,0,0-2.679,4.269c-3.80436,8.05876-12.516-1.99882-6.03168-7.06225C266.56523,406.71005,292.42106,402.6552,324.18577,401.24221Z"></path><path class="cls-31" d="M319.88254,367.58683c30.88061-9.29,126.5209,59.04545,98.68639,54.52239-28.41465-29.978-69.11225-52.7291-111.3931-48.91891-23.73027,1.41444-47.65909,6.81412-68.33058,18.84141-1.79244,1.37653-5.22269,2.56825-6.24394-.27845C249.36447,373.04964,291.83352,368.24933,319.88254,367.58683Z"></path><path class="cls-31" d="M338.45194,482.20639c-26.96906.43809-53.54662,7.51737-78.44246,17.54647-2.36711,1.28719-6.55095,1.71341-7.18376-1.71589,8.75729-11.959,56.75539-19.7338,73.249-21.95889a169.41712,169.41712,0,0,1,49.86177,3.70455c13.34836,3.42811,27.83847,5.42167,39.784,12.56214,3.79622,3.06605.16,8.38975-3.9706,5.28867C389.05664,487.29938,363.3217,483.04107,338.45194,482.20639Z"></path><path class="cls-31" d="M399.35715,456.35641c-36.854-34.26959-119.53094-34.60952-155.29391-1.089-7.84567-12.656,46.4212-26.50222,56.40427-26.42877,38.33953-4.32771,86.61028,1.28475,109.19518,35.18425-1.54931,1.34936-2.595-2.37733-4.64637-.81164-.96064.535-1.77858-.42514-2.09142-1.35773-16.47753-11.78518-40.31633-13.39984-60.27267-16.34644-32.17791-1.9344-68.56972,5.13415-93.51056,25.37672,2.10249-9.17714,17.4214-11.78843,25.23462-16.18868C313.63184,436.84174,362.4466,443.48428,399.35715,456.35641Z"></path><path class="cls-31" d="M402.83,315.56682c-31.36248-4.40982-63.329-.63587-94.69357,2.22288-17.188,2.01355-34.14318,5.5937-50.96846,9.50729a2.18522,2.18522,0,0,1-2.99-1.39363C251.29167,314.30611,424.81588,300.40235,402.83,315.56682Z"></path><path class="cls-31" d="M318.25973,391.75668c22.86039.91542,78.0341,7.67763,90.56591,24.4697-23.76708-9.72847-51.706-18.81417-79.01023-20.564-27.22151-.26617-60.041,1.35655-81.52276,19.65462-1.97192,1.39229-4.21955,6.233-6.87067,3.98716C253.55014,395.84514,294.10515,394.14677,318.25973,391.75668Z"></path><path class="cls-31" d="M349.14753,334.48955c20.282.01767,40.72875-.122,60.813,3.01766,1.19339.23009,2.53685.48552,2.34763,1.95885-.2146,1.67111-1.66537,1.47185-2.92129,1.25833-25.05937-3.58281-50.50024-3.00794-75.74906-2.98736-31.69048.33015-63.82864,6.1888-91.65,22.00171-1.80925.45529-3.19983,3.78354-5.08346,2.02086a1.74166,1.74166,0,0,1,.19807-2.676C270.06419,337.80033,310.78022,333.96487,349.14753,334.48955Z"></path><path class="cls-31" d="M388.92244,318.42071c3.332.21826,31.54583-.5043,26.06289,2.69534-38.76416-3.13128-78.4772-.454-116.72348,6.53559-19.80432,5.53365-44.64552,8.59827-59.97095,21.789-.0704,1.23313-3.32985.0417-2.05758-1.21123C281.58141,321.58986,337.48489,319.792,388.92244,318.42071Z"></path><path class="cls-31" d="M261.69418,484.58548c35.13118-27.68586,111.43084-30.4365,150.27953-10.12657C365.56764,455.88272,304.71471,457.51731,261.69418,484.58548Z"></path></g><g id="HW5wsL" class="cls-32"><path class="cls-33" d="M386.86262,461.489c.62827-2.54975,1.12492-4.62709,1.65235-6.69654,8.00078-31.39223,18.02939-62.15288,28.55195-92.76793,6.65114-19.35122,13.44249-38.68794,16.09476-59.22074-.44376-.048-.79473-.119-1.14573-.11912-17.178-.00567-34.356.01337-51.53384-.04242-1.31084-.00426-1.68863.55921-2.03393,1.62-5.94506,18.26389-11.77546,36.5656-16.689,55.13941-3.74475,14.15577-7.0003,28.407-5.34712,43.25406a5.723,5.723,0,0,0,.64353,2.67606c7.81091,12.13548,13.91612,25.176,20.05092,38.19592C379.95929,449.58211,383.52777,455.22639,386.86262,461.489Z"></path><path class="cls-34" d="M386.86262,461.489c-3.33485-6.26262-6.90333-11.9069-9.75607-17.96128-6.1348-13.02-12.24-26.06044-20.05092-38.19592a5.723,5.723,0,0,1-.64353-2.67606c-1.65318-14.847,1.60237-29.09829,5.34712-43.25406,4.9135-18.57381,10.7439-36.87552,16.689-55.13941.3453-1.06081.72309-1.62428,2.03393-1.62,17.17781.05579,34.35585.03675,51.53384.04242.351.00012.702.07114,1.14573.11912-2.65227,20.5328-9.44362,39.86952-16.09476,59.22074-10.52256,30.615-20.55117,61.3757-28.55195,92.76793C387.98754,456.86192,387.49089,458.93926,386.86262,461.489Z"></path></g></g><path class="cls-35" d="M305.24224,310.22744c14.08393,10.63481,8.62282,29.605,8.33539,31.90442s2.2006-7.13093,3.44913-11.78452c3.16169-11.78451,15.80849-22.41932,15.80849-22.41932"></path><path class="cls-35" d="M287.69929,495.63574s10.65625-5.17788,29.30895-5.55093c22.20375-.44408,36.85822,5.773,36.85822,5.773"></path><path class="cls-35" d="M287.47726,504.51724s13.98836-5.995,38.41248-5.3289S362.97,504.2952,362.97,504.2952"></path><path class="cls-36" d="M604.49128,376.23509c8.2894-8.8815,17.763-13.91435,36.41415,1.1842s31.30192,33.7497,51.21665,33.7497c26.05239,0,51.21664-32.5655,51.21664-32.5655"></path><path class="cls-36" d="M316.13861,166.77973s44.85157-14.95052,90.14721,9.02953"></path><path class="cls-36" d="M671.30606,158.8234s16.87485,30.1971,39.96675,29.531,43.97674-12.83156,56.39752-24.8682c21.53764-20.87152,55.69-28.38071,72.60626-6.66112,17.985,23.0919,13.54428,52.62288,68.1655,59.72808"></path><path class="cls-37" d="M576.56152,61.1292,561.52438,48.01039H542.465a9.561,9.561,0,0,1-9.46783-9.52971V13.91384A9.5077,9.5077,0,0,1,542.465,4.446h42.14111a9.46777,9.46777,0,0,1,9.46783,9.46783V38.48068a9.46777,9.46777,0,0,1-9.46783,9.46783h-8.04456ZM542.465,5.86928a8.02853,8.02853,0,0,0-8.04456,8.04456V38.48068a8.02853,8.02853,0,0,0,8.04456,8.04456h19.61635l13.05693,11.448V46.58712h9.46783a8.02854,8.02854,0,0,0,8.04456-8.04456V13.91384a8.02854,8.02854,0,0,0-8.04456-8.04456Z"></path><path class="cls-37" d="M570.86845,37.11929h-9.34407a6.52865,6.52865,0,0,1-1.91831-.24752l-.55694-.12377V23.196l.9901-1.052a7.66168,7.66168,0,0,0,1.36139-2.104,7.11825,7.11825,0,0,0,.495-2.53713V15.64651a1.17507,1.17507,0,0,1,.495-.92822l.61881-.37129a3.10862,3.10862,0,0,1,.80446-.3094,2.62785,2.62785,0,0,1,2.47525.80445,4.24147,4.24147,0,0,1,1.052,2.53713v.12377a25.635,25.635,0,0,1-.30941,4.88861h5.50743a2.87463,2.87463,0,0,1,1.42327.37129,3.12045,3.12045,0,0,1,1.547,2.66089c0,.30941-.18565,1.60891-1.79456,8.849l-.06188.12376A2.93645,2.93645,0,0,1,570.86845,37.11929Zm-10.39605-1.547a6.004,6.004,0,0,0,1.052.06188h9.34406a1.32138,1.32138,0,0,0,1.29951-1.36138V34.149l.06188-.24752c1.48515-6.86882,1.73267-8.29209,1.73267-8.53961a1.71519,1.71519,0,0,0-.80446-1.42327h0a1.24741,1.24741,0,0,0-.68069-.18564h-7.17822l.24752-1.48515a20.80125,20.80125,0,0,0,.30941-4.76485v-.12377a2.247,2.247,0,0,0-.68069-1.60891,1.066,1.066,0,0,0-1.11386-.37129.87953.87953,0,0,0-.37129.12377l-.43317.3094v1.6708a8.24616,8.24616,0,0,1-.55693,3.03218,7.21588,7.21588,0,0,1-1.67079,2.599l-.61882.61881Z"></path><path class="cls-37" d="M556.38824,38.04751h-3.89851a1.40035,1.40035,0,0,1-1.42327-1.42327V23.44354a1.40035,1.40035,0,0,1,1.42327-1.42326h3.89851a1.40035,1.40035,0,0,1,1.42327,1.42326v13.1807A1.48286,1.48286,0,0,1,556.38824,38.04751Zm-3.89851-14.604v13.1807h3.89851V23.44354Z"></path><path class="cls-37" d="M487.5457,18.90613,482.087,24.36487l-1.75459-1.75459a.88541.88541,0,0,0-.97478,0,.88539.88539,0,0,0,0,.97477l2.72937,2.72938,6.43352-6.43353a.88539.88539,0,0,0,0-.97477.64317.64317,0,0,0-.97477,0Z"></path><path class="cls-37" d="M473.119,27.67911H455.963a.77982.77982,0,0,0,0,1.55964H473.119a.77982.77982,0,1,0,0-1.55964Z"></path><path class="cls-37" d="M473.119,32.358H455.963a.77982.77982,0,1,0,0,1.55964H473.119a.77982.77982,0,0,0,0-1.55964Z"></path><path class="cls-37" d="M473.119,37.23192H455.963a.77982.77982,0,1,0,0,1.55964H473.119a.83861.83861,0,0,0,.77982-.77982A.71412.71412,0,0,0,473.119,37.23192Z"></path><path class="cls-37" d="M473.119,41.91084H455.963a.77982.77982,0,0,0,0,1.55964H473.119a.83861.83861,0,0,0,.77982-.77982A.71412.71412,0,0,0,473.119,41.91084Z"></path><path class="cls-37" d="M493.39435,22.41532a9.52328,9.52328,0,0,0-8.773-9.35785V2.14h-26.319L444.46059,15.9818V57.70222h40.16078v-26.124A9.2063,9.2063,0,0,0,493.39435,22.41532ZM457.9125,4.47944V15.59189H446.80005ZM445.82527,56.33753v-39.381h13.45192V3.50466h23.97949v9.55281a9.64229,9.64229,0,0,0-8.773,9.94272,9.59654,9.59654,0,0,0,8.773,8.773V56.53249H445.82527Zm38.21123-25.929a7.99317,7.99317,0,1,1,7.99317-7.99317h0A8.15951,8.15951,0,0,1,484.0365,30.40849Z"></path><path class="cls-37" d="M367.51051.13963h0L367.23125,0l-.34907.13963h0L341.05124,11.17014v.55851c.13962,14.80043,2.93216,25.97057,8.51723,34.20855,4.95675,7.40022,11.72864,11.72865,17.17409,15.21931l.41888.27926.41887-.27926c5.44545-3.49066,12.21735-7.81909,17.24391-15.21931,5.58507-8.238,8.3776-19.40812,8.51723-34.20855v-.55851Zm15.98726,44.89c-4.18881,6.14358-9.28518,9.91349-15.49857,13.96267V37.83885a.79235.79235,0,0,0-.83776-.76795.77477.77477,0,0,0-.768.76795V58.9923c-6.21339-4.04918-11.30977-7.81909-15.49857-13.96267-5.37563-7.8191-8.02854-18.57036-8.238-32.81229L366.39349,2.0944v12.357a.79235.79235,0,0,0,.83776.76795.77477.77477,0,0,0,.76795-.76795V2.0944l23.73654,10.12294C391.59612,26.45927,388.8734,37.21053,383.49777,45.02963Z"></path><path class="cls-37" d="M367.23125,17.17409A9.00593,9.00593,0,1,0,376.23718,26.18,9.02789,9.02789,0,0,0,367.23125,17.17409Zm0,16.33633a7.40022,7.40022,0,1,1,7.40022-7.40022,7.40394,7.40394,0,0,1-7.40022,7.40022Z"></path><path class="cls-37" d="M367.23125,20.24588A5.89933,5.89933,0,1,0,373.16539,26.18,6.02034,6.02034,0,0,0,367.23125,20.24588Zm0,10.19275a4.29367,4.29367,0,1,1,4.32843-4.32843A4.34982,4.34982,0,0,1,367.23125,30.43863Z"></path><path class="cls-37" d="M367.23125,23.73655A2.44347,2.44347,0,1,0,369.67472,26.18,2.52148,2.52148,0,0,0,367.23125,23.73655Zm0,3.21141a.84891.84891,0,0,1-.83776-.83776.83776.83776,0,0,1,1.67552,0A.8986.8986,0,0,1,367.23125,26.948Z"></path><path class="cls-37" d="M273.12731,41.01759l.84988-13.81042H268.453L278.65149,8.51l-.84988,13.81043h5.52418Zm-2.12467-15.51017h4.67429l-.6374,8.49872,5.52417-9.986h-4.6743l.63741-8.49872Z"></path><path class="cls-37" d="M285.45046,44.41708l-1.48727-.42494a26.86743,26.86743,0,0,1,5.52417-9.56106A18.855,18.855,0,0,0,288.85,7.6601a18.8506,18.8506,0,0,0-26.771.42494,18.99037,18.99037,0,0,0,0,26.346,25.59394,25.59394,0,0,1,5.52417,9.56106l-1.48728.42494a23.78,23.78,0,0,0-5.3117-8.92366A22.08878,22.08878,0,0,1,255.28,21.25806a20.6094,20.6094,0,1,1,41.2188,0,20.83392,20.83392,0,0,1-5.73664,14.23536,23.78026,23.78026,0,0,0-5.3117,8.92366"></path><path class="cls-37" d="M286.08787,49.51631H265.47846a.84987.84987,0,0,1,0-1.69974h20.60941a.84987.84987,0,0,1,0,1.69974"></path><path class="cls-37" d="M286.08787,54.61555H265.47846a.84987.84987,0,0,1,0-1.69974h20.60941a.84987.84987,0,0,1,0,1.69974h0"></path><path class="cls-37" d="M282.68838,59.71478H268.878a.84987.84987,0,0,1,0-1.69974h13.81043a.914.914,0,0,1,.84987.84987.77826.77826,0,0,1-.84987.84987"></path><path class="cls-37" d="M186.00607,10.9333A4.7323,4.7323,0,0,0,190.67342,6.266a4.5671,4.5671,0,0,0-4.66735-4.47288,4.7323,4.7323,0,0,0-4.66735,4.66735A4.56709,4.56709,0,0,0,186.00607,10.9333Zm0-7.58443a3.07177,3.07177,0,0,1,3.11157,3.11156,3.11157,3.11157,0,0,1-6.22313,0h0A3.07176,3.07176,0,0,1,186.00607,3.34887Z"></path><path class="cls-37" d="M186.00607,47.88313a4.66735,4.66735,0,1,0,4.66734,4.66735A4.7323,4.7323,0,0,0,186.00607,47.88313Zm0,7.77891a3.11157,3.11157,0,1,1,3.11157-3.11156,3.07176,3.07176,0,0,1-3.11157,3.11156Z"></path><path class="cls-37" d="M209.14833,24.74087a4.66735,4.66735,0,1,0,4.66735,4.66735h0A4.86824,4.86824,0,0,0,209.14833,24.74087Zm0,7.77891a3.11157,3.11157,0,1,1,3.11157-3.11156,3.07176,3.07176,0,0,1-3.11157,3.11156Z"></path><path class="cls-37" d="M167.53116,29.40822a4.7323,4.7323,0,0,0-4.66735-4.66735,4.56709,4.56709,0,0,0-4.47287,4.66735,4.7323,4.7323,0,0,0,4.66734,4.66735h0A4.5671,4.5671,0,0,0,167.53116,29.40822Zm-4.47288,3.11156a3.11157,3.11157,0,1,1,3.11157-3.11156h0a3.07176,3.07176,0,0,1-3.11157,3.11156Z"></path><path class="cls-37" d="M199.03575,42.43789a4.67544,4.67544,0,1,0,6.61207,0A4.818,4.818,0,0,0,199.03575,42.43789Zm5.44524,5.44524a3.1628,3.1628,0,1,1,0-4.47287,2.95823,2.95823,0,0,1,0,4.47287Z"></path><path class="cls-37" d="M169.67036,17.73985a4.73231,4.73231,0,0,0,4.66735-4.66735,4.5671,4.5671,0,0,0-4.66735-4.47287A4.7323,4.7323,0,0,0,165.003,13.267a4.55458,4.55458,0,0,0,1.36131,3.306A5.28093,5.28093,0,0,0,169.67036,17.73985Zm-2.1392-6.80655a3.29524,3.29524,0,0,1,4.47287,0,3.293,3.293,0,0,1,0,4.47288,3.11188,3.11188,0,0,1-4.47287,0h0a3.29523,3.29523,0,0,1,0-4.47288Z"></path><path class="cls-37" d="M166.55879,42.43789a4.67545,4.67545,0,1,0,6.61208,0A4.818,4.818,0,0,0,166.55879,42.43789Zm5.44524,5.44524a3.1628,3.1628,0,1,1,0-4.47287h0a3.293,3.293,0,0,1,0,4.47287Z"></path><path class="cls-37" d="M202.34178,17.73985a4.66735,4.66735,0,1,0-4.66734-4.66735,4.64794,4.64794,0,0,0,4.66734,4.66735Zm-2.1392-6.80655a3.29525,3.29525,0,0,1,4.47288,0,3.29525,3.29525,0,0,1,0,4.47288,3.29524,3.29524,0,0,1-4.47288,0h0a2.95993,2.95993,0,0,1,0-4.47288Z"></path><path class="cls-37" d="M197.86891,41.27106l-1.36131-4.86182-1.16684,1.36131L192.2292,34.659a7.08175,7.08175,0,0,0,1.75025-4.47287h4.47288v1.75025l4.2784-2.52814-4.2784-2.52815v1.75025h-4.47288a9.81637,9.81637,0,0,0-1.75025-4.47287l3.11156-2.91709,1.16684,1.16684,1.36131-4.86182-4.86182,1.36131,1.16684,1.16684-2.91709,3.11156a7.08176,7.08176,0,0,0-4.47288-1.75026V16.962h1.75026l-2.52815-4.2784-2.52815,4.2784h1.75026v4.47287a9.8165,9.8165,0,0,0-4.47288,1.75026l-2.91709-3.11157,1.16684-1.16683-4.86182-1.36131,1.36131,4.86182,1.16684-1.16684,3.11156,3.11157a7.0817,7.0817,0,0,0-1.75025,4.47287h-4.47288V27.07454l-4.2784,2.52815,4.2784,2.52815V30.38058h4.47288a9.81637,9.81637,0,0,0,1.75025,4.47288L176.67138,37.965l-1.16684-1.16684L174.14323,41.66l4.86182-1.36131-1.16684-1.55578,3.11157-3.11156a7.08175,7.08175,0,0,0,4.47287,1.75025v4.47287H183.6724l2.52814,4.2784,2.52815-4.2784h-1.75025V37.3816a9.81637,9.81637,0,0,0,4.47287-1.75025l3.11156,3.11156L193.396,39.90975ZM186.00607,22.79614a6.61208,6.61208,0,1,1-6.61207,6.61208A6.55751,6.55751,0,0,1,186.00607,22.79614Z"></path><path class="cls-37" d="M88.53148,47.76778a14.81843,14.81843,0,0,1-6.239-1.468,10.89325,10.89325,0,0,1-5.68852-6.42253,13.48186,13.48186,0,0,1,2.01851-13.579,14.69833,14.69833,0,0,1,6.606-4.95452l3.85352-1.101h.367a42.4761,42.4761,0,0,1,8.441-.9175V16.20565a3.07621,3.07621,0,0,0-1.835-2.936,4.811,4.811,0,0,0-2.75251-.367h0a4.482,4.482,0,0,0-4.037,3.67h0a3.42347,3.42347,0,0,1-3.303,2.202c-.734,0-1.468-.18351-2.202-.18351l-4.037-.367h-.5505a2.73532,2.73532,0,0,1-2.01851-3.303h0A14.68256,14.68256,0,0,1,84.678,4.82861a19.93162,19.93162,0,0,1,21.10259,1.101,11.33863,11.33863,0,0,1,4.22051,5.872,12.121,12.121,0,0,1,.55051,4.404V31.98672a3.5773,3.5773,0,0,0,.1835,1.468,8.10746,8.10746,0,0,0,1.101,2.936,5.57587,5.57587,0,0,1,.91751,1.28451,1.39115,1.39115,0,0,1,.367.734,2.57757,2.57757,0,0,1,.367,2.569,3.83878,3.83878,0,0,1-.734,1.101l-5.68852,4.771a2.838,2.838,0,0,1-3.85352-.1835,29.94634,29.94634,0,0,1-3.11951-3.67,7.1847,7.1847,0,0,1-1.835,1.468,16.75678,16.75678,0,0,1-7.15653,3.11952c-.5505,0-1.65151.18349-2.569.18349m5.505-36.14964a5.65051,5.65051,0,0,1,2.38551.5505,4.63612,4.63612,0,0,1,2.75251,4.22052v4.037h-.734a47.8437,47.8437,0,0,0-8.808.91751h-.367a21.46371,21.46371,0,0,0-3.67.9175,13.18907,13.18907,0,0,0-5.872,4.58752,12.44015,12.44015,0,0,0-1.835,12.29455,9.83427,9.83427,0,0,0,5.138,5.68852,12.896,12.896,0,0,0,8.25754,1.101,14.96541,14.96541,0,0,0,6.606-2.75252c.5505-.5505,1.101-.9175,1.6515-1.468l1.101-.9175.367.5505a36.69464,36.69464,0,0,0,3.48651,4.037,1.66882,1.66882,0,0,0,2.01851.18351l5.68853-4.771.367-.367a1.50737,1.50737,0,0,0-.1835-1.2845h0c-.1835-.1835-.367-.5505-.5505-.734a4.865,4.865,0,0,0-.91751-1.101,8.35284,8.35284,0,0,1-1.468-3.48651,5.6571,5.6571,0,0,1-.1835-1.835V16.20565a15.28412,15.28412,0,0,0-.5505-4.037,9.30217,9.30217,0,0,0-3.67-5.138A18.15449,18.15449,0,0,0,85.412,5.92961a13.22281,13.22281,0,0,0-6.973,9.175,1.21336,1.21336,0,0,0,.1835,1.101,1.00912,1.00912,0,0,0,.9175.55051h.367l4.037.367c.734,0,1.468.1835,2.38551.1835a1.47685,1.47685,0,0,0,1.6515-.9175,6.05748,6.05748,0,0,1,5.32153-4.771h.734M92.752,38.95975a2.32741,2.32741,0,0,1-1.101-.1835,12.64519,12.64519,0,0,1-1.468-.5505,4.15368,4.15368,0,0,1-2.01851-3.11952,6.60325,6.60325,0,0,1,.18351-4.22052,7.51877,7.51877,0,0,1,3.11951-3.67,10.02255,10.02255,0,0,1,3.303-1.101c.91751,0,2.01851-.1835,3.11952-.1835h1.468v4.771a7.71185,7.71185,0,0,1-1.468,4.771,9.65676,9.65676,0,0,1-2.202,2.569,6.0917,6.0917,0,0,1-2.936.91751M97.70651,27.3992h0c-1.101,0-2.202.1835-3.11951.1835a5.46033,5.46033,0,0,0-2.75251.91751,5.813,5.813,0,0,0-2.569,2.936,5.65795,5.65795,0,0,0,0,3.48651h0a2.84115,2.84115,0,0,0,1.468,2.01851,8.94493,8.94493,0,0,0,1.2845.5505,3.779,3.779,0,0,0,2.75251-.5505h0a11.52077,11.52077,0,0,0,2.01851-2.202,7.85781,7.85781,0,0,0,1.101-4.037Z"></path><path class="cls-37" d="M92.20149,61.53034H89.816c-.5505,0-1.2845-.1835-1.6515-.1835H87.981c-.5505,0-.9175-.1835-1.468-.1835a15.53963,15.53963,0,0,1-3.11951-.734l-.91751-.1835a8.945,8.945,0,0,1-2.01851-.734l-.5505-.367c-.734-.367-1.65151-.734-2.569-1.101a20.95022,20.95022,0,0,1-2.936-1.65151,15.30677,15.30677,0,0,1-2.202-1.468,16.68917,16.68917,0,0,1-3.85352-3.303l-.367-.367a2.53315,2.53315,0,0,0-.734-.5505l-1.835-1.835a1.88736,1.88736,0,0,1,2.569-2.75251,6.37348,6.37348,0,0,1,1.65151,1.101,4.59917,4.59917,0,0,0,1.2845.734c.734.367,1.468.91751,2.01851,1.101a16.77931,16.77931,0,0,0,2.569,1.28451c.734.367,1.468.5505,2.202.9175l2.75251,1.101a22.18628,22.18628,0,0,0,3.303.9175l1.101.1835.55051.1835c.5505.1835.9175.1835,1.468.367a2.32747,2.32747,0,0,1,1.101.1835l1.101.1835c.55051,0,1.101.1835,1.468.1835h5.872a3.12281,3.12281,0,0,0,1.28451-.1835c.367,0,.734-.1835,1.101-.1835l1.28451-.367c.367,0,.5505-.1835.9175-.1835l2.01851-.5505a38.43222,38.43222,0,0,0,4.22052-1.468c.5505-.1835,1.101-.5505,1.6515-.734l2.75252-1.2845c.1835-.1835.367-.1835.734-.367a2.292,2.292,0,0,1,2.38551.734,1.96511,1.96511,0,0,1-.1835,2.569h0c-.734.734-1.468,1.2845-2.01851,1.835-.5505.367-1.101.91751-1.65151,1.28451l-.5505.367c-.5505.367-.9175.55051-1.468.91751-.9175.5505-1.835,1.101-2.569,1.468a10.89542,10.89542,0,0,0-1.468.734l-1.101.367c-.55051.1835-1.101.367-1.835.5505a19.19717,19.19717,0,0,1-3.11952.734,18.07925,18.07925,0,0,1-3.11951.367c-.9175,0-1.65151.1835-2.569.1835Zm-.367-1.2845h1.468a10.46329,10.46329,0,0,0,2.38551-.1835,18.07938,18.07938,0,0,0,3.11951-.367c1.101-.1835,2.01851-.5505,3.11951-.734l1.65151-.5505,1.101-.367c.5505-.18351.9175-.367,1.468-.5505.734-.367,1.468-.734,2.38551-1.28451a10.24222,10.24222,0,0,0,1.468-.91751l.5505-.367c.5505-.367.91751-.734,1.468-1.101.734-.5505,1.28451-1.28451,2.01851-1.835a.81909.81909,0,0,0,0-.9175.80691.80691,0,0,0-.91751-.18351c-.1835,0-.367.18351-.5505.18351l-2.936,1.2845c-.5505.1835-1.101.5505-1.65151.734a41.29123,41.29123,0,0,1-4.404,1.468l-2.202.5505a7.94748,7.94748,0,0,0-.9175.1835l-1.28451.367a3.12279,3.12279,0,0,1-1.28451.1835c-.367,0-.9175.1835-1.468.1835H90.55a5.08031,5.08031,0,0,1-1.6515-.1835l-.91751-.367a2.32729,2.32729,0,0,1-1.101-.18351,3.457,3.457,0,0,1-1.468-.367l-.5505-.1835-1.101-.1835a13.98162,13.98162,0,0,1-3.67-1.101c-.9175-.367-2.01851-.734-2.936-1.101-.734-.367-1.468-.5505-2.202-.9175-.9175-.367-1.835-.91751-2.569-1.28451a12.218,12.218,0,0,0-2.202-1.101,5.576,5.576,0,0,1-1.2845-.91751h0a8.14738,8.14738,0,0,1-2.01851-1.468.519.519,0,1,0-.734.734,16.54357,16.54357,0,0,1,1.65151,1.835c.1835.5505.367.734.734.734l.55051.367a29.94634,29.94634,0,0,0,3.67,3.11951c.91751.5505,1.468,1.101,2.202,1.468.9175.5505,1.835,1.101,2.936,1.6515.91751.367,1.835.734,2.569,1.101l.55051.1835c.5505.1835,1.2845.5505,1.835.734l.91751.1835a13.74623,13.74623,0,0,0,2.936.734c.5505,0,1.101.18351,1.468.18351h.367c.5505,0,1.101.1835,1.6515.1835h1.468Z"></path><path class="cls-37" d="M117.8916,56.94282h0a1.30884,1.30884,0,0,1-1.468-1.28451v-.9175h0l.367-.734c.1835-.1835.1835-.5505.367-.734.367-1.101.734-2.01851,1.101-3.303,0-.1835.18351-.5505.18351-.734a2.60812,2.60812,0,0,1,.367-1.101v-.18351h0l-.1835-.1835-2.569-.367h-.9175a10.46264,10.46264,0,0,0-2.38551.18351,236022.75378,236022.75378,0,0,1-1.468.367h0c-.367,0-.5505,0-.734-.1835h-.1835c-.1835,0-.1835,0-.367-.1835a1.272,1.272,0,0,1-.5505-1.835h0a1.832,1.832,0,0,1,.734-.91751,15.57147,15.57147,0,0,1,4.771-2.0185,26.79752,26.79752,0,0,1,4.037-.55051,10.4626,10.4626,0,0,1,2.3855.18351,3.32337,3.32337,0,0,1,2.75252,3.11951h0a10.82958,10.82958,0,0,1-.367,2.569l-.5505,2.202a14.63,14.63,0,0,1-1.468,2.936,14.00554,14.00554,0,0,1-1.468,2.01851l-.5505.5505a1.83208,1.83208,0,0,1-.91751.734,1.18606,1.18606,0,0,1-.9175.367m-.1835-1.835v.55051h.5505c.1835,0,.367-.1835.5505-.367l.5505-.5505a16.046,16.046,0,0,0,1.468-1.835,20.05655,20.05655,0,0,0,1.468-2.75251c.1835-.55051.367-1.28451.5505-2.01851a10.46329,10.46329,0,0,0,.1835-2.38551,1.97574,1.97574,0,0,0-1.468-1.835,8.934,8.934,0,0,0-2.202-.1835,22.58968,22.58968,0,0,0-3.67.367,15.0105,15.0105,0,0,0-4.404,1.835l-.18351.1835h0v.1835h.734a1.38712,1.38712,0,0,0,.734-.1835c.367,0,.5505-.1835.91751-.1835.734,0,1.468-.18351,2.38551-.18351h1.101l2.38551.18351a1.60523,1.60523,0,0,1,1.28451,2.0185c-.18351.367-.18351.734-.367,1.101,0,.367-.1835.5505-.1835.734-.367,1.28451-.734,2.38551-1.101,3.48652-.18351.367-.18351.5505-.367.9175Z"></path></svg>