<svg xmlns="http://www.w3.org/2000/svg" xmlns:xlink="http://www.w3.org/1999/xlink" id="Layer_1" x="0px" y="0px" viewBox="0 0 133.5 66" xml:space="preserve"><path fill="#6F6D6D" d="M25.91,0.22v1.33l1.23,0.28c1.89,0.47,2.18,1.61,2.93,5.21l1.97,10.11l-5.49,29.53L19.08,9.58 c-0.85-4.07-1.14-7.1,1.89-7.76l1.42-0.28v-1.3H4.71v1.33l1.8,0.48c1.8,0.47,2.56,1.32,3.79,6.91l12.02,56.89h3.1l8.05-42.98 l8.92,42.98h2.46l11.55-55.13c1.33-6.34,1.89-8.14,4.17-8.72l1.8-0.48V0.22H49.37v1.33l1.99,0.38c2.84,0.57,3.5,2.37,2.18,9.66 l-7.08,35.1L39.28,9.58c-0.78-3.69-1.23-7.1,1.89-7.67l2.08-0.38V0.2L25.91,0.22z M110.14,0.4v1.33l2.37,0.57 c2.08,0.47,2.93,1.23,2.93,3.88v45.91c0,5.11,0,11.83-5.3,11.83c-3.03,0-5.39-2.65-5.2-4.45c0.19-2.93,5.3-2.75,5.58-7.48 c0.28-3.3-1.8-4.85-3.88-5.11c-2.93-0.38-6.53,2.08-6.63,7C99.91,60.23,104.08,66,111.18,66c7.85,0,12.99-5.3,12.99-15.43l0-44.3 c0-2.65,0.66-3.5,2.56-3.97l2.07-0.59V0.38L110.14,0.4z M78.25,0C70.2,0,65.66,6.72,65.66,15.52c0,16.38,21.11,22.72,21.11,37.49 c0,7-2.94,10.88-7.17,10.88c-6.34,0-10.89-7.66-12.02-19.88h-1.42V65.6h1.14c0.95-3.1,2.18-3.41,3.22-3.41 c1.8,0,3.69,3.78,9.18,3.78c8.42,0,13.91-7.29,13.92-17.32c0-19.69-21.11-24.52-21.11-38.62c0-3.22,0.95-7.95,5.68-7.95 c6.82,0,9.75,8.99,10.89,19.88h1.42V0.38h-1.14c-0.47,2.08-1.32,3.03-2.56,3.03C84.61,3.41,83.5,0,78.27,0L78.25,0z M93.49,18.56 v0.23l0.04-0.03l-0.02-0.19L93.49,18.56z"></path></svg>